<svg width="558" height="592" viewBox="0 0 558 592" fill="none" xmlns="http://www.w3.org/2000/svg">
<path fill-rule="evenodd" clip-rule="evenodd" d="M282 29L280 30L278 32L277 34L276 36L273 40L270 44L269 46L268 48L267 50L266 53L265 56L264 62L265 68L266 71C266 74 266 74 263 74L260 75L257 76L253 78L250 80L244 86L242 89L240 93C240 95 238 98 236 98L234 99L232 100L229 102L226 104C224 104 216 113 216 114L215 116L214 120L215 124C217 124 216 127 213 130L210 134L208 137L206 140L205 142L204 145L203 148L202 147L200 146L198 145L196 144L194 143L191 142L188 141L185 140L182 139L169 138L156 139L153 140L150 141L147 142L144 143L142 144L140 145L138 146L135 148L132 150L116 166C116 168 121 172 122 172L124 171L125 170L126 172L127 174L128 176L129 178L130 180L131 182L132 187L133 192L134 199L135 206L136 210L137 214L138 218L139 222L140 224L141 226L142 228L143 230L144 232L147 236L150 240L155 246L160 252L163 256L166 260L167 262L168 264L169 266V268L168 270L162 277L156 284L154 287L152 290L150 293L148 296C148 298 145 300 144 299L145 298C146.366 280.676 146.031 263.259 144 246C144 244 142 242 140 242L138 241L135 240L132 241L130 242C128 242 128 241 128 233L127 224L126 221C126 218 120 212 116 212L112 213L110 214C109 214 108 213 108 211C108 208 102 202 98 202C95 202 90 206 90 208L89 210L88 212L87 214L86 213L84 212L82 213L80 214L78 216L72 223L66 230L65 232L64 257C63.5429 268.084 64.5516 279.18 67 290L68 294L69 298L70 300L71 302L72 304L73 306L74 308L76 311L78 314L81 318C83 320 84 322 84 325L85 330L86 337L87 344L88 348L89 352L90 355L91 358L92 360L94 363L96 366C96 368 109 380 110 380L112 381L114 382L116 383L118 384L120 385L122 386L124 387L117 394L110 402L109 404L108 406L107 408L106 410L105 412L104 416L103 420L102 430L103 440L104 444L105 448L106 451L107 454L108 456L109 458L110 460L112 463L114 466C121.377 475.293 130.147 483.389 140 490L142 491L144 492L146 493L148 494L150 495L152 496L154 497L156 498L158 499L161 500L164 501L167 502L170 503L173 504L176 505L178 506L180 507L183 508L186 509L190 510L194 511L200 512H206V516L207 520L208 526L209 532L210 534L211 536L212 538C212 540 214 542 216 542L218 543H228C229 542 229 542 231 544C234 547 238 547 242 543C244 540 245 540 250 540L256 539L258 538L262 535L266 532L268 531L270 530L272 529H274L276 535L277 540L278 542L280 546C283 548 284 548 290 548L298 547L300 546L302 545L304 544L307 542L310 540L316 535L322 530L325 528L328 526L330 525L332 524L334 523L336 522L338 521L341 520L344 521L356 522L368 521L379 520L390 519L395 518L400 517L404 516L408 515L411 514L414 513L417 512L420 511L422 510L424 509L426 508L428 507L430 506L432 505L434 504L436 503L438 502L441 500L444 498C452.673 491.341 460.118 483.219 466 474L467 472L468 469L469 466L470 463L471 460L472 447L471 434L470 431L469 428L468 426L467 424L466 422L464 419L462 416C462 414 460 412 458 412L455 410L452 408L450 407L448 406L446 405L443 404C440 404 439 403 442 401L444 398L445 396L446 394L447 392L448 389L449 386L450 380C450 375 450 375 456 369L462 362L465 358L468 354L470 351L472 348L474 345L476 342L477 340L478 338L479 336L480 334L481 332L482 330L483 328L484 326L485 324L486 322L487 320L488 318L489 316L490 314L491 312L492 308L493 304L494 292L493 280L492 278L490 275L488 272L487 270L486 268L485 266L484 263L481 258C478 255 477 252 479 252L480 250L482 247L484 244L485 242L486 239L487 236L488 233L489 230L490 219L489 208L488 205L487 202L486 199L485 196L484 194L483 192L482 190C482 188 477 184 475 184C473 184 472 185 472 186L471 188L470 190L469 192L468 194C468 195 464 200 462 200L459 202L456 204L450 210L448 213L446 217L445 220L444 229L445 238L446 241L447 244L448 246L449 248L450 250L451 252L452 255C452 257 452 258 450 258L448 257L443 256C439 256 438 256 434 260L430 266L429 268L428 271L427 274L426 279L425 284L424 289L425 294L426 297L425 300L424 304L423 308L422 305L421 302L420 300L418 297L416 294L414 291L412 288L398 274L395 273C394 271 395 270 406 259C412.134 253.386 417.512 247 422 240L423 238L424 235L425 232L426 230L427 228L428 224L429 220L430 216L431 212L432 207L433 202L434 199L435 196L436 194L437 192L438 190L439 188L440 186L441 184L442 182C442 180 449 173 450 175L452 176C454 176 456 173 456 170C456 168 455 166 449 159L440 152L437 150L434 148L432 147L430 146L428 145L426 144L424 143L421 142L418 141L415 140L412 139L398 138L384 139L381 140L378 141L375 142L372 143L370 144L366 147C363 150 363 150 362 149L360 145L359 142L358 140L356 137L354 134L352 131C350 130 349 124 351 124L352 122L351 120L350 118L349 116L348 114C348 113 340 104 338 104L335 102L332 100C330 100 328 97 328 96L327 94L326 91C326 89 316 78 314 78L312 77L309 76L306 75L304 74C302 74 302 73 302 71L303 68L304 60L303 52L302 50L301 48L300 46L297 42L294 38C294 36 285 28 284 28L282 29ZM282 47L280 50L278 53L276 56L275 58L274 62L275 66L276 68L279 72L280 69L279 66L278 63L279 60L280 58C280 56 281 56 284 56C288 56 288 56 288 59L289 62V64L288 67L287 70L286 71H291L292 68L293 66L294 61C294 58 294 56 292 55L290 52L288 49L286 46C286 43 285 44 282 47ZM274 81L269 82L264 83L262 84L260 85L258 86L252 91L254 92L256 91L261 90L266 89L281 88L296 89L301 90L306 91L309 92L312 93L314 94L316 93L308 86L306 85L303 84L300 83L295 82L290 81L282 80L274 81ZM268 99L262 100L256 101L253 102L250 103L247 104L244 105L242 106L240 107L238 108L235 110L232 112L224 119L226 120L228 119L230 118L232 117L234 116L236 115L239 114L242 113L245 112L248 111L253 110L258 109L264 108L270 107L281 106L292 107L299 108L306 109L310 110L314 111L317 112L320 113L323 114L326 115L328 116L330 117L332 118L334 119L336 120L338 121L339 122C340 121 329 110 328 110L326 109L324 108L322 107L320 106L318 105L315 104L312 103L308 102L304 101L299 100L294 99L281 98L268 99ZM262 119L257 120L252 121L249 122L246 123L243 124L240 125L238 126L235 128L232 130L229 132L226 134L220 140L218 143L216 146L215 148L214 151L213 154L212 157L211 160L210 166L209 172L208 183L207 194L206 205L207 216L208 225L209 234L210 237L211 240L212 243L214 247L216 250L223 258L224 255C224 252 228 248 231 248C235 248 236 250 236 263L237 276L238 281L239 286L240 290L241 294L242 297L243 300L244 303L245 306L246 308L248 311L250 314L253 318L256 322L262 328L266 331L270 334L273 336L276 338L278 339L280 340L282 341L284 342L286 343L289 344L292 345L295 346L298 347L301 348L304 349L308 350L312 351L316 352L320 353L322 354L324 355L326 356C328 356 334 363 334 365L335 368L336 370L335 372L334 375C334 378 328 384 325 384L322 385H320L317 384C312 384 308 375 311 371C314 369 316 370 316 374C316 378 316 378 320 378L326 375C327 374 328 373 327 372L326 370L324 366C321 364 320 364 315 364C310 364 308 364 307 366L304 368L302 370L301 372L300 374L299 376L298 380L299 384L300 386L301 388L302 390C302 391 304 394 306 394L309 396L313 398L316 399L323 400L330 399L334 398L338 397L340 396L343 394L346 392L354 384L356 381L358 377L359 374L360 371L361 368L362 362L361 356L360 353L359 350L358 348L356 345L354 342C354 341 352 338 350 338L346 335L342 332L340 331L338 330L335 328L332 326L330 325L328 324L325 322L322 320C320 320 312 311 312 310L311 308L310 306L309 304L308 302L307 300L306 295L305 290L304 285L305 280L306 274L307 268L308 266L309 264L310 262C310 260 317 254 319 254C320 254 324 256 327 260L333 266L340 259L348 250L349 248L350 245L351 242L352 238L353 234L354 225L355 216L356 193C356.643 183.287 355.97 173.532 354 164L353 158L352 155L351 152L350 150L349 148L348 146L347 144L346 142C346 140 338 132 336 132L334 131L332 130L330 129L328 128L326 127L324 126L322 125L319 124L316 123L313 122L310 121L306 120L302 119L294 118L286 119L287 120L288 122L289 124L290 127L291 130L292 132L293 134L294 137L295 140L296 145L297 150L304 142C304 140 307 138 308 138L311 136L317 134C320 134 322 135 325 137C327 140 328 142 328 145L329 150L330 153L331 156L334 153L339 150C342 150 342 150 342 154L339 161C335 164 335 164 329 164C324 164 323 164 320 162C318 159 318 158 318 152C318 145 318 144 316 144C315 144 310 148 310 150L305 156L300 162L298 164L295 166L292 168L290 169L281 170L272 169L270 168C269 168 258 158 258 156L255 152L252 148L248 144C246 144 244 147 244 148L245 150L246 153L245 156L244 158C244 160 242 162 240 162L238 163L232 164C228 164 226 164 224 162L222 158L221 156L220 153C220 151 222 148 224 148L228 152L230 155C232 157 234 154 234 148L235 142L236 140L238 136C240 134 242 134 246 134C251 134 251 134 257 139L262 146L264 149C266 151 268 148 268 143L269 138L270 135L271 132L272 129L273 126L274 124L275 122L276 120C276 118 275 118 269 118L262 119ZM280 137L279 140C277 140 278 157 279 159C281 160 281 160 283 158C286 155 286 154 286 148L285 140L284 138L281 134L280 137ZM158 149L154 150L150 151L148 152L146 153L144 154L142 155L140 156L137 158L134 160C131 160 131 165 134 167L136 170L137 172L138 174L139 176L140 179L141 182L142 186L143 190L144 196L145 202L146 207L147 212L148 215L149 218L150 220L151 222L152 224L154 227L156 230L160 235L164 240L168 245L172 250L174 253L176 256L177 258L178 260L179 262L180 261L182 260L185 258L188 256L190 255L192 254L194 253L196 252L198 251L200 250C202 250 202 249 202 247L201 244L200 242L199 240L197 242L194 244L192 245L186 246L180 245L178 244C176 244 174 242 174 240L173 238L172 233C172 230 173 228 175 225C181 220 188 221 188 227C188 230 185 233 184 231H179C178 233 178 233 180 235C184 239 188 239 192 236L194 232L195 230L196 225L197 220L198 214L197 208L196 203L195 198L194 196L191 191L186 188L184 187L182 186L180 185L175 184L170 185L168 186C166 186 164 188 164 190L163 192L162 195L163 198L164 200C164 202 167 204 169 204C171 204 172 203 172 202L173 200L174 198C174 196 177 193 178 195L180 196L182 198L183 200L184 202L183 204L182 206C182 208 180 210 178 210L176 211L171 212L166 211L163 210C161 210 156 206 156 204L155 202L154 195L155 188L156 186L159 181L164 178L166 177L173 176L180 177L183 178L186 179L188 180L190 181L191 182C193 182 192 179 190 176L186 174L184 173L182 172L180 171L177 170L174 169L167 168L160 169L155 170C150 170 150 170 150 167L152 162L157 160L160 159L168 158L176 159L179 160L182 161L184 162L186 163L188 164L191 166L194 168L196 170L199 174L200 166C200 159 199 156 196 156L193 154L189 152L186 151L182 150L178 149L168 148L158 149ZM390 149L386 150L382 151L380 152L378 153L376 154L369 159C364 165 364 165 364 169L365 174L366 177L367 180L368 178C368 176 378 166 380 166L382 165L384 164L386 163L390 162L394 161L399 160L404 161L408 162L412 163L415 164C417 164 422 168 422 170C422 172 419 174 416 174L412 173L407 172L402 171L399 170L396 171L392 172L388 173L386 174C384 174 374 184 374 186L373 188L372 190L371 192L370 196L369 200L368 202L369 204L370 208L371 212L372 214C372 216 376 220 378 220L380 221L386 222L392 221L394 220C396 220 404 212 404 210L405 208L406 203L405 198L404 196C404 194 402 192 400 192L398 191C398 189 393 190 389 193C386 197 385 200 387 203C389 204 390 204 390 202L393 198L394 203L392 210C388 213 386 213 381 209C378 205 378 205 378 199C378 193 378 193 382 188L388 184L390 183L396 182L402 183L404 184C406 184 412 190 412 192L413 194L414 203L413 212L412 214L411 216L410 218C410 219 406 224 404 224L401 226L398 228L396 229L392 230L388 231L386 232L384 231L380 230L376 229L374 228L369 224L365 220L364 227L363 234L362 241V247L369 255L378 262L380 263C380 265 386 264 387 262L390 260C398.673 253.341 406.118 245.219 412 236L413 234L414 232L415 230L416 228L417 226L418 223L419 220L420 216L421 212L422 207L423 202L424 198L425 194L426 192L427 190L428 187L429 184L430 182L432 179L434 176L438 171L442 167L439 164L434 160L431 158L428 156L426 155L423 154L420 153L417 152L414 151L409 150L404 149L397 148L390 149ZM280 180L279 182L278 189L279 196L280 198L278 200C277 200 272 196 272 194L271 191H268C265 194 266 199 269 203L274 206L278 209L276 210C274 210 270 215 270 217L269 220V230L268 233L267 236L266 238L267 240L268 243L269 246L270 248L271 250C272 251 272 251 270 253L268 256L267 258L266 263L268 270L272 272C275 272 274 273 272 275C270 276 270 278 270 283C270 288 270 290 272 291C274 292 274 294 274 298C274 304 274 304 271 304C269 304 268 304 268 302L266 300C264 300 264 301 264 303L265 306L266 308C266 310 267 310 273 310C279 310 280 310 280 312L279 314L278 319L280 326L284 328L286 329H288C288 327 292 328 292 330L294 334L301 336L307 338C309 341 317 341 319 338C321 336 321 336 322 337L324 341C324 343 326 346 327 346L328 344L329 342L330 339L329 336L328 334L327 332L326 330C326 329 324 326 322 326L319 328V330C321 331 318 334 315 334C312 334 310 332 310 328L309 324L308 322L307 320L304 324L303 326L302 328L300 330C298 330 298 329 298 321L297 311H294L292 315L291 318L290 320L289 323H286C284 321 283 314 285 314L286 312L287 310V304L288 302C288 300 287 300 285 300L282 301L281 302L280 297C280 294 280 292 282 291L284 288L285 286V281C283 280 280 280 280 282L279 285C277 286 277 286 275 284V282L276 280L280 275L284 270L285 268L286 264L285 260L284 256L286 251L288 248L289 246L290 244L291 242C293 242 292 237 290 234C285 230 278 232 278 237C278 239 279 240 280 240L282 239L283 238L284 240L283 242L282 244C282 246 278 247 275 245C274 243 273 234 275 234L276 232C276 231 278 228 280 228L286 224C290 220 290 219 290 215L289 210C287 210 288 207 292 203L296 198L297 196L298 194C298 193 297 192 295 192C293 192 290 194 290 196L285 202L284 200L285 198C287 198 286 181 285 179C282 177 280 178 280 180ZM222 185C219 188 221 190 229 190L236 191L238 192L240 193L242 194L245 196L248 198L254 203C260 209 262 209 262 204C262 201 261 200 256 194L248 188L245 186L241 184L238 183L231 182C225 182 224 182 222 185ZM322 183L320 184L318 185L316 186C309.491 190.432 304.03 196.234 300 203L298 208C298 212 298 212 301 212C303 212 304 212 304 210L306 207L308 204L311 199L316 196L319 194L323 192L326 191L334 190C343 190 344 189 340 184C337 182 336 182 330 182L322 183ZM224 199L222 200L220 201L218 202C216 202 216 203 216 205C216 208 216 208 220 208C224 208 226 210 226 213C226 217 230 220 235 220H240V216L241 212L242 213L244 214L246 216C246 217 252 224 254 224C256 224 259 221 257 220L256 218L255 216L254 214C254 212 244 202 242 202L240 201L238 200L236 199L230 198L224 199ZM328 199L325 200L322 201L320 202C318 202 310 210 310 212L309 214L308 217L307 220C305 221 308 224 310 224C312 224 314 221 314 220L316 217L318 214C318 212 321 210 322 210L324 212L323 214V219C327 222 334 220 334 216L335 214L336 211C336 208 336 208 339 208L343 207C344 205 344 205 342 203L338 200L336 199L332 198L328 199ZM474 202L473 204L472 207L471 210L470 215L471 220L472 217L473 214L474 212L475 210L476 205L475 200L474 202ZM98 216L97 220L96 222L97 224L98 231L99 238L100 243L101 248L102 251C102 253 104 256 105 256L106 244L105 232L104 227L103 222L102 219L101 216L100 214L99 212L98 216ZM461 213V226L462 220L463 214L464 213H461ZM277 215C275 218 276 220 279 220C281 220 284 218 284 216C284 214 279 214 277 215ZM478 220L477 222L476 224L473 228L470 232L469 234L468 238L467 242L466 244L467 246L476 236L477 234L478 232L479 230L480 224L479 218L478 220ZM114 232L115 244L116 251L117 258V260L116 262C116 264 115 264 113 264L110 263C109 262 109 262 107 264L104 266L102 267L99 268L96 269L92 270L85 267L82 262L81 260L80 257L79 254L78 249L77 244L76 239L75 234L74 238L73 242L72 253L73 264L74 272L75 280L76 284L77 288L78 291L79 294L80 296L81 298L82 300L83 302L84 304C84 306 92 314 94 314L96 315L98 316L100 317L107 318L114 317L117 316L121 314L124 312L130 306L132 303L134 300L135 298L136 292L137 286L138 272L137 258L136 254L135 249C133 247 132 248 132 250L131 252L130 255L129 258L128 263L127 268L126 270L125 272L124 274C124 275 122 278 120 278C118 278 108 289 108 290C108 292 109 292 111 292C114 292 114 292 114 295C114 300 107 302 102 298C99 294 99 285 102 283L104 280C104 279 108 274 110 274C112 274 118 267 118 265L119 262L120 247L119 232L118 227C118 223 116 220 115 220L114 232ZM452 228L453 236L454 238L455 240L456 242L459 246L460 244L459 242L458 239L457 236L456 232L455 228L454 224L453 220L452 228ZM84 232L85 240L86 245L87 250L88 253L89 256L90 258L92 260C94 260 94 259 94 255L93 250L92 246L91 242L90 237L89 232L88 228C88 225 88 224 86 224C84 224 84 225 84 232ZM274 258L273 260V265C275 266 277 266 279 264V262L278 260L275 256L274 258ZM354 260L347 268C341 274 338 278 341 278L342 280L343 282L344 287L343 292L342 294L340 298C337 300 336 300 330 300L322 299L320 298L318 297L317 296C315 296 316 300 318 301L320 304C320 306 323 308 324 308L326 309L328 310L330 311L333 312L336 311L338 310C340 310 348 301 348 299L349 296L350 290L351 284L352 282L354 280C356 280 356 281 356 292L355 304L354 308L353 312L352 314L349 318C346 321 345 322 348 322L351 324L354 326C356 326 364 335 364 336L365 338L366 340L367 342L368 344L369 346L370 349L371 352L372 365L373 378C375 378 376 375 376 369L377 362L378 358L379 354L380 351L381 348L382 346L383 344L384 342L385 340L386 338C386 336 394 328 396 328L398 327L404 326C409 326 409 326 413 329L416 335L417 338L418 332L417 326L416 321L415 316L414 313L413 310L412 308L411 306L410 304L408 301L406 298L399 289L390 282L387 280L384 278L382 277L380 276L378 275L376 274L373 272L370 270L363 264C357 258 354 257 354 260ZM204 261L202 262L200 263L198 264L196 265L194 266L192 267L190 268L187 270L184 272L180 275L176 278L164 290L161 294L158 298L157 300L156 302L155 304L154 306L153 308L152 310L151 312L150 313C151 314 153 312 155 310L160 306L163 304L166 302L169 300L172 298C174 298 178 293 178 292L179 290L180 288L182 284C184 282 186 282 190 282C194 282 196 282 198 284C200 287 201 292 199 292L198 294C198 296 195 298 192 298L188 299L190 300L192 301L194 302C196 302 202 308 202 310L203 312L204 317V322H209L216 324C218 327 218 327 218 340L217 354L216 357L215 360L214 363L213 366L212 368L211 370L210 372L208 375L206 378L204 381L202 384L199 388L196 393L195 396L194 398L195 400L196 404L197 408L198 410L199 412L200 414C200 415 210 426 212 426L215 428L219 430L222 431L232 432L242 431L246 430L250 429L252 428L254 427L256 426L258 425L260 424L262 423L264 422L268 419L272 416L284 404L287 400L290 396L291 394V392L290 389L289 386L288 381L289 376L290 373L291 370L292 368L295 364C299 360 299 358 294 358L290 357L288 356L286 355L283 354L280 353L278 352L276 351L274 350L272 349L270 348L268 347L266 346L264 345L262 344L258 341L254 338L244 328L242 325L240 322L239 320L238 318L237 316L236 323L237 330L238 332L239 334L240 336L242 339L244 342C244 344 246 346 248 346L251 348L254 350L256 351L258 352C259 352 262 354 262 356C262 358 259 360 255 360L250 359L248 358L246 357L244 356C242 356 232 346 232 344L231 342L230 340L229 338L228 335L227 332L226 322L227 312L228 310L229 308L230 306L231 304L232 302L233 300C235 300 234 295 233 293H228L221 294C215 294 215 294 211 291L208 284L209 280L210 278C210 276 214 272 216 272L218 271L220 270C222 270 223 269 221 267L216 266L211 264L208 262L206 261L205 260L204 261ZM456 265C454 267 453 272 455 272L457 270L460 268L462 267L465 266L468 265H470C470 266 474 267 474 265C474 263 471 262 465 262C459 262 458 262 456 265ZM440 270L439 272L438 274L437 276L436 291L437 306L438 308L439 310L440 312C440 313 448 322 450 322L453 324C454 326 456 326 461 326C469 326 472 323 472 317L471 312L470 310L469 308L467 310L464 312L462 313C462 315 457 314 453 311C450 307 450 307 450 300C450 294 450 292 448 291C446 290 446 288 446 281L445 272L444 270L442 268L440 270ZM316 275L317 280L318 283C318 286 324 292 328 292C331 292 334 290 334 288L317 270L316 275ZM466 273L464 274L461 276L458 278L456 280L455 282L454 283L456 284L458 283L460 282L463 280C464 278 466 278 472 278L480 277L478 274L471 272L466 273ZM222 277L220 278L218 280L217 282V284C220 287 225 286 228 284C230 281 231 279 229 277C227 276 222 275 222 277ZM468 287L466 288L462 290L460 294L459 296L458 298L457 300C455 300 456 303 458 305H461L462 302L463 300L464 298C464 297 468 292 470 292C472 292 474 295 474 297L473 300L472 302L473 304L475 302L477 300L478 302L479 304L480 306C480 308 481 309 483 307C484 305 485 292 483 292L482 290C482 287 479 286 474 286L468 287ZM188 289L190 290L192 289L190 288L188 289ZM380 293L378 294L373 297L370 302L369 304L368 307L367 310L366 314L367 318L368 321L369 324L370 326C370 328 372 330 374 330C376 330 376 329 376 327L375 324L374 321L373 318L372 313L373 308L374 306L376 302L380 300L382 299L385 298L388 299L390 300C393 300 394 303 394 308C394 313 394 314 392 314L390 315H385V310L386 308L384 306C382 306 380 308 380 310L379 312V314L380 316C380 318 382 320 384 320L386 321L388 322L390 321L392 320L397 317C399 314 400 312 400 309L399 304L398 301C398 299 394 294 392 294L390 293L385 292L380 293ZM178 307L175 308L170 311L166 314L164 316L161 320L158 324L157 326L156 329L155 332L154 333L156 334L158 333L162 332H166V327L167 322L168 320C168 318 169 317 171 319L172 330L173 340L174 337L175 334L176 332C176 330 180 329 180 331H182C184 329 185 326 183 326L182 324L180 321C178 319 177 314 179 311C181 310 181 310 183 312L186 316L187 318L188 320L195 328L196 322C196 317 196 317 193 313L188 310L186 309L184 308L182 307L180 306L178 307ZM133 316L130 318L127 320L124 322L122 323L119 324L116 325L105 326L94 327L96 328L98 329L100 330L102 331L109 332L116 331L118 330L120 329L122 328L136 315C136 313 134 314 133 316ZM428 329V344H431L434 345L436 346L441 349L444 354L445 356L446 358L448 360C449 360 456 354 456 352L458 349L460 346L462 343L464 340C464 338 463 338 460 338L456 337L453 336L450 335L448 334L446 333L444 332L437 327L432 320L431 318L430 316L429 314L428 329ZM142 324C142 325 140 328 138 328L133 332L128 336L126 337L124 338L122 339L120 340L118 341L112 342L106 343L102 344C99 344 98 344 98 346L99 348L100 351L102 355L104 358C104 360 119 374 120 374L122 375L124 376L126 377L129 378L132 379L135 380L138 379L137 378L136 375L135 372L134 362L135 352L136 348L137 344L138 342L139 340L140 337L141 334L142 332L143 330L144 328L145 326L146 324L144 322L142 324ZM203 331L202 335L201 338L200 343L199 348L198 353L197 358L196 360C196 362 191 366 189 366C186 366 184 364 184 360L183 356L182 353L181 350L180 348L179 346L176 350L175 352L174 357L173 362L172 364C172 366 170 367 167 365L166 357L165 350L164 348L161 344L160 347L159 350L158 354L156 360C153 363 152 363 152 360L151 358L150 355L151 352L152 348L153 344V342C151 340 151 340 150 341L148 344L147 346L146 349L145 352L144 360L145 368L146 371C146 373 156 384 158 384L160 385L163 386L166 387L172 388L178 387L181 386L184 385L186 384C187 384 198 374 198 372L200 369L202 366L203 364L204 362L205 360L206 357L207 354L208 348L209 342L210 338L209 334L208 332C208 330 205 329 203 331ZM498 331L495 332L491 334L488 336C486 336 484 338 484 340L482 343L480 347L479 350L478 354L477 358L476 362L477 366L478 370V374H470C463 374 463 374 459 377C456 381 456 381 456 388C456 394 456 395 458 398C463 402 470 400 470 395C470 392 467 389 466 391C465 392 465 392 463 390V388L464 386C464 384 467 382 471 382L476 383L478 384C479 384 484 388 484 390L486 393L488 396L489 398L490 400L491 402L492 404L493 406L494 409L495 412L496 415L495 418L494 416L491 411C487 408 486 408 482 408C475 408 472 411 472 418C472 424 474 426 478 426C482 426 482 426 482 423L481 420L480 418L482 416C484 416 488 420 488 422L489 424L490 428L491 432V434L490 440L489 446L488 449L487 452L486 455L485 458L484 460L483 462L482 464L480 467L478 470L477 472L476 474L473 478L470 482C464.426 489.392 457.668 495.812 450 501L446 504L443 506L440 508L438 509L436 510L434 511L432 512L430 513L428 514L426 515L424 516L422 517L419 518L416 519L413 520L410 521L405 522L400 523L395 524L390 525L379 526L368 527L356 528L344 529L341 530L338 531L336 532L334 533L332 534C330 534 324 541 324 543L323 546L322 549L323 552L324 555C324 557 328 562 330 562L332 563L340 564L348 563L350 562L352 560L353 558C355 558 354 549 353 547C350 545 345 546 342 549L337 552C334 552 334 552 334 549L335 546L336 544L338 542L340 541L343 540L346 539L354 538L362 537L369 536C375 536 376 536 376 538L375 540L374 545C374 549 374 550 376 550L378 551C378 553 383 552 385 551L386 548L387 546L388 542L387 538L386 537L389 536L392 535L397 534L402 533L406 532L410 531L414 530L418 529L422 528L426 527L431 526L436 527L439 528C442 528 446 532 446 535C446 537 444 540 442 540C440 540 438 537 438 536C438 534 437 534 435 535C432 539 434 546 438 546L440 547L446 548C451 548 451 548 455 545C458 541 458 541 458 536L457 530L456 528C456 526 452 522 450 522L448 521L445 520L442 519L446 516L449 514L452 512L454 511L456 510L459 508L462 506L464 505L466 504L468 503L471 502L474 501L480 500L486 501L488 502C492 502 496 511 493 515C490 517 486 516 486 514L485 512L484 510C484 507 480 507 476 510C473 514 473 518 478 524C483 528 483 528 489 528L496 527L498 526C500 526 504 522 504 520L505 518L506 510C506 504 506 502 504 501L502 498C502 496 499 494 498 494L496 493L494 492L492 491L484 490L476 489L478 487L480 484L482 481L484 478L486 475L488 472L490 469L492 466L493 464L494 462C494 460 500 454 502 454L504 453L506 452L508 451L516 450C523 450 523 450 527 453C530 457 530 457 530 463C530 469 529 472 526 472L524 473H522L520 472C518 472 518 471 518 467C518 462 516 460 512 460C509 460 506 462 506 464L505 466L504 470L505 474L506 476L510 482L515 486H522L530 485L532 484C534 484 538 480 538 478L539 476L540 474L541 472L542 463L541 454L540 451C540 448 532 440 529 440L526 439L518 438L510 439L508 440L506 441L504 442L502 441L503 440L504 436L505 432L506 427L507 422L508 419L509 416L510 414L511 412L512 410L513 408L514 406C514 405 520 398 522 398L524 397C525 395 530 400 530 402C530 404 527 406 525 406C522 406 522 406 522 409C522 411 522 412 524 412L526 413L530 414L534 413L536 412L538 410L539 408L540 401C540 395 540 395 537 391L531 388L528 387L525 386L522 387L519 388L511 393L506 400L503 404L502 401L501 398L500 395L498 391L496 388L495 386L494 384L493 382L492 380L491 378L490 376L489 374L488 371L487 368L486 364L487 360L488 356L492 348L498 344L500 343L508 342C515 342 515 342 519 345C522 349 522 350 522 354C522 358 522 359 518 363C515 366 515 366 513 365L512 360C512 357 508 352 506 352C504 352 500 357 500 358L499 360L498 363L499 366L500 368C500 370 504 374 506 374L508 375L515 376L522 375L524 374C526 374 530 370 530 368L531 366L532 364L533 362L534 354L533 346L532 344C532 342 522 332 520 332L518 331L508 330L498 331ZM50 333L47 334L44 335L42 336L40 337L38 338C37 338 32 342 32 344L30 347L28 352L27 356L26 358L27 360L28 364L32 372L38 376L40 377L46 378L52 377L54 376C56 376 60 372 60 370L61 368C63 368 62 357 61 355L56 354C52 354 50 356 50 360C50 364 48 366 45 366C42 366 40 364 40 362L39 360L38 357L39 354L40 352C40 350 45 346 47 346L50 345L53 344L56 345L60 346L68 350L72 357L73 360L74 364L73 368L72 371L71 374L70 376L69 378L68 380L67 382L66 385L65 388L64 390L63 392L62 394L61 396L60 401L59 406L58 404L57 402L56 400C56 398 50 392 48 392L46 391L44 390L42 389L36 388C32 388 30 388 29 390L26 392C24 392 22 395 22 396L21 398L20 405C20 410 20 411 22 414L26 416L28 417L32 418C36 418 40 414 40 411C40 408 37 405 36 407C36 409 33 408 31 406V404L32 402C32 400 33 400 37 400C40 400 42 401 45 403L48 408L49 410L50 412L51 414L52 417L53 420L54 423L55 426L56 429L57 432L58 435L59 438L60 441C60 444 59 445 57 442L53 440L50 439L45 438L40 439L37 440L33 442L30 444C28 444 26 447 26 448L25 450L24 452L23 454L22 463L23 472L24 474C24 476 30 482 32 482L34 483L36 484L38 485L42 486L46 485L49 484L52 483L54 482L56 480L58 477C60 476 60 474 60 470C60 463 57 460 51 460H46V466L44 473H42L40 472L36 470C34 468 34 466 34 462C34 458 34 457 37 453C41 450 41 450 47 450L54 451L56 452L58 453L60 454C61 454 66 458 66 460L68 463L70 466L71 468L72 470L74 473L76 476L78 479L80 482L82 485C85 487 84 488 79 488L74 489L71 490L67 492L64 494C62 494 60 497 60 498L59 500L58 502L57 504L56 510L57 516L58 518C58 520 64 526 66 526L68 527L73 528L78 527L80 526L82 525L84 524L86 522L87 520C89 520 88 515 86 512C83 510 78 509 78 512C78 513 76 516 74 516C72 516 68 511 68 509C68 506 74 500 77 500L80 499L84 498L88 499L91 500L94 501L97 502L105 508L112 514L118 519L116 520L110 524C106 529 106 529 106 535C106 541 107 544 110 544L112 545L116 546L123 543C126 539 127 538 125 535H120L117 536C113 536 113 534 116 530C119 528 120 528 129 528L140 529L143 530L146 531L148 532L151 534L154 536L156 537L158 538L161 540L165 542L168 543L177 544L186 543L188 542C190 542 194 538 194 536L195 534L196 532C196 530 195 530 191 530L186 531L179 532L172 531L170 530C168 530 166 527 166 524C166 519 168 519 172 523L175 526L177 524C180 521 181 518 179 518L178 516C178 514 175 512 173 512L170 511L168 510L166 511L164 512L162 513L160 514C158 514 156 516 156 518L155 520L154 522L153 524L152 523L150 522L148 521L146 520C144 520 136 512 136 510L135 508L134 500C134 492 134 492 131 492C127 492 126 494 126 503L125 512L124 511L122 510C121 510 110 500 110 498L107 494L104 489L103 486L102 475V464H99C95 464 94 466 94 475L93 484L90 480L88 477L86 474L85 472L84 470L83 468L82 466L81 464L80 462L79 460L78 458L77 456L76 448L77 440L78 437C78 435 82 430 84 430C86 430 86 431 86 436C86 442 87 444 91 444C95 444 96 442 96 436L95 430L94 428L93 426L92 424C92 422 91 422 89 422L86 421L84 420L82 421L80 422C78 422 72 428 72 430L71 432L70 434L69 436L68 433L67 430L66 420L67 410L68 407L69 404L70 402L71 400L72 398C72 396 78 390 80 390L82 389L88 388C93 388 96 389 96 392L97 394C98 395 97 396 96 397C93 400 92 401 92 398L91 395H88C83 400 88 408 94 408L98 407L100 406C102 406 104 403 104 401L105 398L106 395L105 392L104 389C104 386 98 380 94 380L90 379L88 378L86 379L83 380L80 379L81 378L82 375L83 372L84 363L83 354L82 351L80 347L78 344C78 342 73 338 72 338L70 337L68 336L66 335L62 334L58 333L54 332L50 333ZM186 335L187 338L188 342C188 345 190 348 191 348L192 342C192 338 192 336 190 334C186 331 186 331 186 335ZM335 337V349L339 350C342 350 344 352 344 354L345 356L346 359L348 363H351C352 361 353 354 351 354L350 352L348 349L346 344C346 338 339 334 335 337ZM400 337L398 338L394 340L392 344L391 346L390 348L389 350L388 352L387 354L386 356L387 358L388 357L390 356L392 358L393 360L394 363L395 366L396 364L397 362L398 359L399 355C402 353 404 354 404 356L406 358C408 358 408 357 408 353L409 348V346L408 343L406 338C403 336 400 335 400 337ZM338 343C338 346 338 347 341 345V342C338 339 338 340 338 343ZM419 351L418 354L417 356L416 362L417 368L418 374L417 380L416 383C416 385 414 388 412 388C410 388 410 387 410 379L409 370L408 368L406 366L404 368L402 371L400 374L399 376L398 381L396 388C393 391 392 391 392 388L391 386L390 379L389 371C386 369 386 370 386 373L385 376L384 386L385 396L386 398C386 400 388 402 390 402L392 403L394 404L396 405L400 406L404 407L407 408L410 407L414 406L418 405L420 404L422 403L424 402L431 397L436 390L437 388L438 385L439 382L440 375L439 368L438 364C438 361 436 358 434 358C432 358 432 359 432 361L433 364L434 371L433 378L432 381C432 384 430 386 427 386C424 386 424 386 424 383L425 380L426 369L425 358L424 354C424 351 424 350 422 350L419 351ZM228 357L225 358C223 358 220 360 220 362L219 364L218 369L219 374L220 376C220 378 222 380 224 380C227 380 226 383 223 386L220 390L219 392L218 394L217 396L216 403L217 410L218 412C218 414 227 422 229 422L232 423L237 424L242 423L244 422L246 421L248 420C250 420 252 418 252 416L253 414L254 412L255 410L256 407L255 404L254 402C254 400 249 396 247 396L244 397L242 398C241 398 240 399 240 401C240 403 243 407 244 405C244 403 247 404 249 406V408L248 410C248 412 246 414 244 414L242 415L238 416L234 415L231 414C229 414 226 412 226 410L225 408L224 402L225 396L226 394C226 393 232 386 234 386L237 384L241 382L244 381L253 380C261 380 261 380 265 383L268 390L267 394L266 398C266 403 268 403 272 400L274 396L275 394L276 390L275 386L274 383C274 381 270 376 268 376L266 375L264 374L262 373L258 372L254 371L252 370L250 371L246 372L242 373L239 374L236 375C236 377 229 376 226 374C222 369 224 364 230 364C234 364 234 364 234 368L235 372C236 372 238 369 238 365C238 361 236 358 234 358L232 357L230 356L228 357ZM357 396L350 402L347 404L343 406L340 407L336 408L332 409L325 410L318 409L315 408L312 407L309 406L306 405L304 404L301 402C299 400 296 399 296 402L292 407L288 412L278 422L274 425L270 428L267 430L264 432L262 433L260 434L258 435L256 436L254 437L251 438L248 439L244 440L240 441L233 442L226 441L224 440L222 441L230 448L233 450L236 452L238 453L240 454L242 455L245 456L248 457L250 458L252 459L256 460L260 461L266 462L272 463L282 464L292 463L298 462L304 461L308 460L312 459L315 458L318 457L320 456L322 455L324 454L326 453L328 452L330 451L332 450L336 447L340 444L350 434L352 431L354 428L355 426L356 424L357 422L358 420L359 418L360 415L361 412L362 405L363 398L364 394L363 390L357 396ZM144 393L139 394L134 395L132 396L118 410L117 412L116 414L115 416L114 419L113 422L112 429L113 436L114 440L115 444L116 446L117 448L118 450L119 452L120 454L121 456L122 458L126 463L130 468L132 470L137 474L142 478L144 479L146 480L148 481L150 482L152 483L154 484L156 485L159 486L162 487L166 488L170 489L179 490L188 489L193 488L198 487L201 486L205 484L208 482L210 481L212 480C214 480 224 470 224 468L225 466L226 464L227 462L228 460C228 459 226 456 224 456L218 451L212 446C205.232 441.145 199.461 435.034 195 428L192 424L190 421L188 418L187 416L186 414C186 412 178 404 176 404L174 403L172 402L170 401L168 400L166 399L164 398L162 397L159 396L156 395L151 394L146 393L145 392L144 393ZM184 398L185 400L186 398L185 396L184 398ZM144 399L142 400C140 400 138 402 138 404L137 406L136 408C136 410 135 410 131 410C125 410 124 412 124 418C124 423 124 424 127 426L130 429L127 432C121 438 124 448 132 448L138 446C140 443 141 441 138 439C137 438 137 438 135 440C133 443 130 443 130 439C130 437 135 431 136 433L138 434C140 434 144 438 144 440L145 442L146 444L147 446C149 447 146 450 144 450L142 452L141 454C139 454 140 465 141 467L147 468C151 468 152 468 152 466L150 464L146 462L144 459L146 457C149 453 151 453 153 456L156 458L160 461L164 464L166 465L168 466L170 467L173 468L176 469L182 470L188 469L190 468L192 467L194 466C196 466 202 460 202 458L203 456L204 452L203 448L202 446C202 444 200 442 198 442L196 441L192 440L188 441L186 442L184 444L183 446C181 446 182 453 183 455L187 456C189 456 192 454 192 453L190 452C188 452 188 451 188 449C188 446 188 446 192 446L197 447C198 449 199 454 197 454L196 456C196 458 191 462 189 462L186 463L183 464L180 463L176 462L172 461L170 460L166 457L162 454C160 454 156 449 156 448L154 445L152 442L151 440L150 433L151 426L152 424C152 422 154 420 156 420L158 419L160 418L162 417L166 416L170 417L172 418C175 418 178 423 178 427C178 434 171 439 167 435C165 432 166 428 168 428L170 426C170 425 169 424 167 424C165 424 162 426 162 428L161 430L160 432L161 434L162 436C162 438 164 440 166 440L168 441L172 442L180 438C184 433 184 433 184 427L183 420L182 418C182 417 180 414 178 414L175 412C174 410 172 410 167 410L160 411L157 412C155 412 146 420 146 422C146 424 145 424 143 423L142 419L141 416L140 413L141 410L142 408C142 406 143 406 145 406L148 407L147 408L146 410C146 412 147 412 149 412C151 412 152 412 152 410L153 408C155 408 154 403 153 401L149 400L146 399L145 398L144 399ZM372 406L373 410L376 406L373 402L372 406ZM372 423C367.439 427.155 363.409 431.858 360 437L358 440C353.498 446.449 347.71 451.897 341 456L338 458L335 460L332 462L329 464C328 465 328 465 331 468L334 472L336 475L338 479L340 483L342 486C342 488 353 498 354 498L356 499L358 500L360 501L362 502L364 503L367 504L370 505L374 506L378 507L387 508L396 507L401 506L406 505L409 504L412 503L415 502L418 501L420 500L422 499L424 498L427 496L430 494L433 492L436 490C443.081 484.786 449.177 478.353 454 471L456 468L457 466L458 464L459 462L460 459L461 456L462 447L461 438L460 435L459 432L458 430L457 428L456 426C456 424 450 418 448 418L446 417L444 416L442 415L433 414L424 415L419 416L414 417L408 418L402 417L397 416L392 415L389 414L386 413C386 410 381 413 372 423ZM130 418L132 424C135 426 138 427 138 425L137 424L136 421L135 418L134 416L132 414C130 414 130 415 130 418ZM332 417L330 418L328 420L327 422L326 425C326 427 326 428 328 428L330 426L331 423C334 421 336 422 336 425L333 431C330 433 328 434 325 434C320 434 320 434 320 430C320 426 314 420 311 420L308 419L304 418L300 419L297 420L292 423L288 426L286 428L283 432L280 436L279 438L278 440L277 442L276 444L275 446L274 443C274 440 272 439 269 442V444L270 447C270 449 270 450 272 450L274 451L276 452C278 452 286 444 286 442L287 440L288 438L291 433L296 430L298 429L300 428L302 427L306 426C310 426 314 430 314 433C314 438 305 443 304 439C303 437 300 441 300 443C300 445 301 446 302 446L304 447L306 448L308 447L310 446L314 443C317 440 320 439 320 441L324 442L328 441L330 440L332 439L334 438L339 435C342 431 342 431 342 425L341 417C339 416 332 415 332 417ZM390 421L385 422L380 423L378 424L371 429L366 436L365 438L364 441L363 444L362 448L363 452L364 453L360 454L356 455L354 456L352 457L350 458L348 460L346 463C344 464 344 466 344 473C344 480 344 482 346 483L348 486C348 488 350 490 352 490L355 492L359 494L362 495L366 496L370 497H372C375 494 374 492 371 492L368 491L365 490L362 489L360 488L354 484C350 479 350 479 350 473C350 468 350 467 352 464L356 462L358 461L360 460L362 461L364 462C366 462 366 463 366 465L365 468L364 472C364 475 368 480 370 480L372 481L382 482C390 482 391 482 394 484C397 488 397 490 394 494L391 496L389 494L386 490C386 488 385 488 383 489C380 493 382 500 386 500L388 501L391 502L394 501L396 500C398 500 400 498 400 496L401 494L402 490L401 486L400 484L398 481C395 479 396 477 400 473L404 468L405 466L406 457L405 448L404 446L403 443L400 442L398 441L392 440C387 440 387 440 383 443C380 447 380 448 380 452C380 458 382 460 385 460C388 460 388 460 388 457C388 455 388 454 386 454C383 454 383 451 386 448L392 446L398 448C400 451 400 452 400 457C400 462 400 464 398 465L396 468C396 470 393 472 392 472L390 473L388 474L386 475L380 476C376 476 374 476 372 473C371 472 370 471 371 470V458L370 450L371 442L372 440L375 435L380 432L382 431L385 430L388 429L393 428L398 429L401 430L404 431L406 432L408 433L410 434C411 434 416 438 416 440L418 443C420 444 420 446 420 451L419 458L418 461L417 464L416 466L411 472C406 476 406 477 407 479C409 480 412 481 412 479C412 477 417 478 419 479V487H414L412 486C410 486 409 490 411 493C415 496 424 492 424 488L425 486L426 484L425 482L424 480C424 478 425 478 431 478L438 477L440 476C442 476 446 471 446 469L447 466L448 464L447 462L446 460C446 457 441 454 437 454C431 454 428 457 428 463C428 468 430 471 433 469L434 464C434 460 434 460 437 460C439 460 442 462 442 464L439 469C435 472 435 472 428 472L420 471L421 470L422 468L423 466L424 463L425 460L426 451L425 442L424 440L423 438L422 436L419 431L414 428L412 427L410 426L408 425L406 424L404 423L398 422L392 421L391 420L390 421ZM428 423C426 425 425 430 427 433C429 434 434 435 434 433L433 432V427C435 425 437 426 440 428C443 432 443 436 438 441C434 445 434 445 435 446L439 448C441 448 446 444 446 442L447 440L448 433C448 428 448 427 446 424L442 422L440 421L435 420C432 420 430 421 428 423ZM213 459L212 462C212 464 203 472 202 472L199 474L195 476L192 477L180 478L168 477L166 476L163 474V470C161 468 159 468 157 469C156 471 155 476 157 476L158 478L160 480L162 481L164 482L166 483L171 484L176 485L179 486L182 485L188 484L194 483L197 482L200 481L202 480L205 478L208 476C210 476 216 469 216 468L217 466L218 462C218 459 218 458 216 458L213 459ZM236 466L235 468L234 470L232 473L230 476C225.498 482.449 219.71 487.897 213 492L209 494L206 495L203 496L200 497L197 498L194 499L197 500L200 501L205 502L210 501L214 500L218 499L220 498L222 497L224 496L238 482L239 480L240 478L241 476C243 476 242 469 240 466C237 463 236 463 236 466ZM311 470C310 471 310 472 313 474L316 478L317 480L318 482L319 484L320 486L321 488L322 490L323 492L324 497L325 502L326 506L325 510L324 513L325 516C326 516 330 511 330 509L331 506L332 497L331 488L330 486L329 484L328 482L327 480L326 478L324 475L322 472C322 468 314 466 311 470ZM258 471L262 474L265 476C267 479 271 479 274 476L276 473L269 472L262 471L260 470L258 471ZM292 475L290 476L288 477L286 478L283 480L280 482L276 485L274 487L276 489L278 492C278 494 281 496 285 496C291 496 294 499 294 506C294 510 294 511 291 515L286 518L284 519L281 520C279 520 278 520 278 522L280 524L283 526C284 528 288 529 288 527L290 526L292 525L295 524C297 524 298 524 298 526C298 528 290 536 288 536L286 538C286 540 287 540 289 540L292 539L295 538L298 537L300 536C302 536 312 525 312 523L313 520L314 509L313 498L312 495L311 492L310 490L309 488L308 486L307 484L306 482L303 477L296 474L292 475ZM250 478L249 480L248 483L247 486L246 488L244 491L242 494L239 499L234 502L231 504L228 506L226 507L223 508L220 509L218 510C216 510 216 511 216 519L217 528L218 531L219 535C221 536 226 537 226 535L225 534L224 531L223 528L222 526L223 524L224 522L225 520L228 524L229 526L230 528C230 530 236 536 238 536C241 536 240 535 238 533L236 530L235 528C233 528 234 523 236 521H239L240 524C240 526 245 530 246 530L248 531C248 533 253 532 255 531C257 529 256 528 254 528L252 527L250 526L248 524L247 522L246 517C246 513 246 512 248 512L250 514L251 516L252 518C252 520 254 522 256 522L258 523L260 524L262 525H264L266 524L268 523L266 522L263 520L260 518L258 516L257 514L256 509L258 502C261 500 264 499 267 501C268 503 268 506 266 506C265 506 262 508 262 510C262 512 265 514 266 514L268 515C268 517 273 516 275 515L276 507C276 502 276 500 274 499L272 496L258 482L254 479C251 475 250 475 250 478ZM284 505L283 508L282 510L284 512C286 512 288 510 288 508L289 506V504C286 501 284 502 284 505ZM342 504L341 506L340 509V512H348L356 511L354 510L351 508L348 506L345 504L343 502L342 504Z" fill="#F7E2B5"/>
</svg>
