<svg id="ewXOlTPzSia1" xmlns="http://www.w3.org/2000/svg" xmlns:xlink="http://www.w3.org/1999/xlink" viewBox="0 0 1080 1080" shape-rendering="geometricPrecision" text-rendering="geometricPrecision" style="background-color:transparent"><style><![CDATA[#ewXOlTPzSia7_tr {animation: ewXOlTPzSia7_tr__tr 3000ms linear infinite normal forwards}@keyframes ewXOlTPzSia7_tr__tr { 0% {transform: translate(540px,540px) rotate(0deg)} 100% {transform: translate(540px,540px) rotate(45deg)}} #ewXOlTPzSia34_tr {animation: ewXOlTPzSia34_tr__tr 3000ms linear infinite normal forwards}@keyframes ewXOlTPzSia34_tr__tr { 0% {transform: translate(540px,540px) rotate(0deg)} 100% {transform: translate(540px,540px) rotate(-45deg)}} #ewXOlTPzSia36_tr {animation: ewXOlTPzSia36_tr__tr 3000ms linear infinite normal forwards}@keyframes ewXOlTPzSia36_tr__tr { 0% {transform: translate(540px,540px) rotate(0deg)} 100% {transform: translate(540px,540px) rotate(-45deg)}} #ewXOlTPzSia39_tr {animation: ewXOlTPzSia39_tr__tr 3000ms linear infinite normal forwards}@keyframes ewXOlTPzSia39_tr__tr { 0% {transform: translate(540px,540px) rotate(0deg)} 100% {transform: translate(540px,540px) rotate(45deg)}} #ewXOlTPzSia72_tr {animation: ewXOlTPzSia72_tr__tr 3000ms linear infinite normal forwards}@keyframes ewXOlTPzSia72_tr__tr { 0% {transform: translate(540px,540px) rotate(0deg)} 100% {transform: translate(540px,540px) rotate(45deg)}} #ewXOlTPzSia115_ts {animation: ewXOlTPzSia115_ts__ts 3000ms linear infinite normal forwards}@keyframes ewXOlTPzSia115_ts__ts { 0% {transform: translate(-172.518637px,413.851968px) scale(1,1)} 50% {transform: translate(-172.518637px,413.851968px) scale(0.75,0.75)} 100% {transform: translate(-172.518637px,413.851968px) scale(1,1)}} #ewXOlTPzSia116_ts {animation: ewXOlTPzSia116_ts__ts 3000ms linear infinite normal forwards}@keyframes ewXOlTPzSia116_ts__ts { 0% {transform: translate(984.814699px,261.185301px) scale(1,1)} 50% {transform: translate(984.814699px,261.185301px) scale(0.75,0.75)} 100% {transform: translate(984.814699px,261.185301px) scale(1,1)}} #ewXOlTPzSia117_ts {animation: ewXOlTPzSia117_ts__ts 3000ms linear infinite normal forwards}@keyframes ewXOlTPzSia117_ts__ts { 0% {transform: translate(949.481367px,861.85197px) scale(1,1)} 50% {transform: translate(949.481367px,861.85197px) scale(0.75,0.75)} 100% {transform: translate(949.481367px,861.85197px) scale(1,1)}} #ewXOlTPzSia118_ts {animation: ewXOlTPzSia118_ts__ts 3000ms linear infinite normal forwards}@keyframes ewXOlTPzSia118_ts__ts { 0% {transform: translate(-11.85197px,976.518637px) scale(1,1)} 50% {transform: translate(-11.85197px,976.518637px) scale(0.75,0.75)} 100% {transform: translate(-11.85197px,976.518637px) scale(1,1)}} #ewXOlTPzSia119_ts {animation: ewXOlTPzSia119_ts__ts 3000ms linear infinite normal forwards}@keyframes ewXOlTPzSia119_ts__ts { 0% {transform: translate(1000.666669px,1292.66667px) scale(1,1)} 50% {transform: translate(1000.666669px,1292.66667px) scale(0.75,0.75)} 100% {transform: translate(1000.666669px,1292.66667px) scale(1,1)}} #ewXOlTPzSia120_ts {animation: ewXOlTPzSia120_ts__ts 3000ms linear infinite normal forwards}@keyframes ewXOlTPzSia120_ts__ts { 0% {transform: translate(646.814699px,101.185301px) scale(1,1)} 50% {transform: translate(646.814699px,101.185301px) scale(0.75,0.75)} 100% {transform: translate(646.814699px,101.185301px) scale(1,1)}}]]></style><defs><radialGradient id="ewXOlTPzSia4-fill" cx="0" cy="0" r="1" spreadMethod="pad" gradientUnits="userSpaceOnUse" gradientTransform="matrix(-540 540 -540 -540 540 540)"><stop id="ewXOlTPzSia4-fill-0" offset="0%" stop-color="rgb(243,206,59)"/><stop id="ewXOlTPzSia4-fill-1" offset="100%" stop-color="rgb(217,75,0)"/></radialGradient><linearGradient id="ewXOlTPzSia124-fill" x1="307.187" y1="967.343" x2="307.187" y2="1043.01" spreadMethod="pad" gradientUnits="userSpaceOnUse" gradientTransform="matrix(1 0 0 1 0 0)"><stop id="ewXOlTPzSia124-fill-0" offset="0%" stop-color="rgba(0,0,0,0.01)"/><stop id="ewXOlTPzSia124-fill-1" offset="100%" stop-color="rgb(0,0,0)"/></linearGradient></defs><g id="ewXOlTPzSia2" clip-path="url(#ewXOlTPzSia129)"><g id="ewXOlTPzSia3"><rect id="ewXOlTPzSia4" width="1080" height="1080" rx="0" ry="0" fill="url(#ewXOlTPzSia4-fill)" stroke="none" stroke-width="1"/><path id="ewXOlTPzSia5" d="M-71.958,0L-47.1444,0L159.245,305.984L147.064,324L-54.4155,26.0079L-71.958,0ZM-13.0257,0L11.788,0L188.746,262.351L176.324,280.723L-13.0257,0ZM45.9067,0L70.7203,0L218.247,218.718L205.826,237.09L45.9067,0ZM104.839,0L129.653,0L247.749,175.085L235.327,193.457L104.839,0ZM163.771,0L188.585,0L277.25,131.451L264.829,149.823L163.771,0ZM222.704,0L247.517,0L306.752,87.8183L294.33,106.19L222.704,0ZM281.636,0L306.45,0L336.253,44.1851L323.831,62.5569L281.636,0ZM340.568,0L365.382,0L365.754,0.551863L353.333,18.9237L340.568,0ZM-106.714,0L87.4286,282.857L59.1429,324L-162,0L-106.714,0Z" clip-rule="evenodd" fill="rgb(241,199,56)" fill-opacity="0.36" fill-rule="evenodd" stroke="none" stroke-width="1"/><path id="ewXOlTPzSia6" d="M928.022,868L941.256,868L1051.33,1031.19L1044.83,1040.8L937.378,881.871L928.022,868ZM959.453,868L972.687,868L1067.06,1007.92L1060.44,1017.72L959.453,868ZM990.884,868L1004.12,868L1082.8,984.65L1076.17,994.448L990.884,868ZM1022.31,868L1035.55,868L1098.53,961.378L1091.91,971.177L1022.31,868ZM1053.74,868L1066.98,868L1114.27,938.107L1107.64,947.906L1053.74,868ZM1085.18,868L1098.41,868L1130,914.836L1123.38,924.635L1085.18,868ZM1116.61,868L1129.84,868L1145.73,891.565L1139.11,901.364L1116.61,868ZM1148.04,868L1161.27,868L1161.47,868.294L1154.84,878.093L1148.04,868ZM909.486,868L1013.03,1018.86L997.943,1040.8L880,868L909.486,868Z" clip-rule="evenodd" fill="rgb(241,199,56)" fill-opacity="0.36" fill-rule="evenodd" stroke="none" stroke-width="1"/><g id="ewXOlTPzSia7_tr" transform="translate(540,540) rotate(0)"><g id="ewXOlTPzSia7" transform="translate(-540,-540)"><g id="ewXOlTPzSia8"><path id="ewXOlTPzSia9" d="M430.864,273.503C429.595,251.929,458.431,203.004,498.122,193.554C524.772,187.209,538.731,177.056,540,161.828C541.269,177.056,555.229,187.209,581.879,193.554C621.57,203.004,650.406,251.929,649.137,273.503" fill="none" stroke="rgb(238,184,49)" stroke-width="10" stroke-linecap="round" stroke-linejoin="round"/><path id="ewXOlTPzSia10" d="M430.864,806.497C429.595,828.07,458.431,876.996,498.122,886.446C524.772,892.791,538.731,902.943,540,918.172C541.269,902.943,555.229,892.791,581.879,886.446C621.57,876.996,650.406,828.07,649.137,806.497" fill="none" stroke="rgb(238,184,49)" stroke-width="10" stroke-linecap="round" stroke-linejoin="round"/><path id="ewXOlTPzSia11" d="M806.497,430.863C828.071,429.594,876.996,458.43,886.446,498.122C892.791,524.772,902.943,538.731,918.172,540C902.943,541.269,892.791,555.228,886.446,581.878C876.996,621.57,828.071,650.406,806.497,649.137" fill="none" stroke="rgb(238,184,49)" stroke-width="10" stroke-linecap="round" stroke-linejoin="round"/><path id="ewXOlTPzSia12" d="M273.503,430.863C251.929,429.594,203.004,458.43,193.554,498.122C187.209,524.772,177.057,538.731,161.828,540C177.057,541.269,187.209,555.228,193.554,581.878C203.004,621.57,251.929,650.406,273.503,649.137" fill="none" stroke="rgb(238,184,49)" stroke-width="10" stroke-linecap="round" stroke-linejoin="round"/><path id="ewXOlTPzSia13" d="M805.613,651.27C821.765,665.628,835.971,720.614,814.587,755.362C800.229,778.693,797.537,795.742,807.408,807.408C795.743,797.537,778.693,800.229,755.362,814.587C720.614,835.97,665.628,821.765,651.271,805.613" fill="none" stroke="rgb(238,184,49)" stroke-width="10" stroke-linecap="round" stroke-linejoin="round"/><path id="ewXOlTPzSia14" d="M428.73,274.387C414.372,258.235,359.386,244.03,324.638,265.413C301.307,279.771,284.258,282.463,272.592,272.592C282.463,284.258,279.771,301.307,265.413,324.638C244.03,359.387,258.235,414.372,274.387,428.73" fill="none" stroke="rgb(238,184,49)" stroke-width="10" stroke-linecap="round" stroke-linejoin="round"/><path id="ewXOlTPzSia15" d="M428.73,805.613C414.372,821.765,359.387,835.971,324.638,814.587C301.307,800.229,284.258,797.537,272.592,807.408C282.463,795.743,279.771,778.693,265.414,755.362C244.03,720.614,258.235,665.628,274.387,651.27" fill="none" stroke="rgb(238,184,49)" stroke-width="10" stroke-linecap="round" stroke-linejoin="round"/><path id="ewXOlTPzSia16" d="M805.613,428.73C821.765,414.372,835.971,359.386,814.587,324.638C800.229,301.307,797.537,284.258,807.408,272.592C795.743,282.463,778.693,279.771,755.362,265.413C720.614,244.03,665.628,258.235,651.27,274.387" fill="none" stroke="rgb(238,184,49)" stroke-width="10" stroke-linecap="round" stroke-linejoin="round"/></g><g id="ewXOlTPzSia17" transform="matrix(1 0 0 1 0 0.000001)"><path id="ewXOlTPzSia18" d="M540,195.392C540,221.002,493.631,247.926,431.946,274.192" fill="none" stroke="rgb(241,199,56)" stroke-width="10" stroke-linecap="round" stroke-linejoin="round"/><path id="ewXOlTPzSia19" d="M540,195.392C540,221.002,586.369,247.926,648.054,274.192" fill="none" stroke="rgb(241,199,56)" stroke-width="10" stroke-linecap="round" stroke-linejoin="round"/><path id="ewXOlTPzSia20" d="M540,884.608C540,858.998,586.369,832.074,648.054,805.808" fill="none" stroke="rgb(241,199,56)" stroke-width="10" stroke-linecap="round" stroke-linejoin="round"/><path id="ewXOlTPzSia21" d="M540,884.608C540,858.998,493.631,832.074,431.946,805.808" fill="none" stroke="rgb(241,199,56)" stroke-width="10" stroke-linecap="round" stroke-linejoin="round"/><path id="ewXOlTPzSia22" d="M884.608,540C858.998,540,832.075,493.631,805.808,431.946" fill="none" stroke="rgb(241,199,56)" stroke-width="10" stroke-linecap="round" stroke-linejoin="round"/><path id="ewXOlTPzSia23" d="M884.608,540C858.998,540,832.075,586.369,805.808,648.054" fill="none" stroke="rgb(241,199,56)" stroke-width="10" stroke-linecap="round" stroke-linejoin="round"/><path id="ewXOlTPzSia24" d="M195.393,540C221.003,540,247.926,586.369,274.193,648.054" fill="none" stroke="rgb(241,199,56)" stroke-width="10" stroke-linecap="round" stroke-linejoin="round"/><path id="ewXOlTPzSia25" d="M195.393,540C221.003,540,247.926,493.631,274.193,431.946" fill="none" stroke="rgb(241,199,56)" stroke-width="10" stroke-linecap="round" stroke-linejoin="round"/><path id="ewXOlTPzSia26" d="M783.675,783.675C765.566,765.565,779.316,713.74,804.36,651.549" fill="none" stroke="rgb(241,199,56)" stroke-width="10" stroke-linecap="round" stroke-linejoin="round"/><path id="ewXOlTPzSia27" d="M783.675,783.675C765.566,765.565,713.74,779.315,651.549,804.36" fill="none" stroke="rgb(241,199,56)" stroke-width="10" stroke-linecap="round" stroke-linejoin="round"/><path id="ewXOlTPzSia28" d="M296.326,296.325C314.435,314.435,300.685,366.26,275.64,428.451" fill="none" stroke="rgb(241,199,56)" stroke-width="10" stroke-linecap="round" stroke-linejoin="round"/><path id="ewXOlTPzSia29" d="M296.326,296.325C314.435,314.435,366.26,300.685,428.452,275.64" fill="none" stroke="rgb(241,199,56)" stroke-width="10" stroke-linecap="round" stroke-linejoin="round"/><path id="ewXOlTPzSia30" d="M296.326,783.675C314.435,765.565,366.26,779.315,428.452,804.36" fill="none" stroke="rgb(241,199,56)" stroke-width="10" stroke-linecap="round" stroke-linejoin="round"/><path id="ewXOlTPzSia31" d="M296.326,783.675C314.435,765.566,300.685,713.74,275.64,651.549" fill="none" stroke="rgb(241,199,56)" stroke-width="10" stroke-linecap="round" stroke-linejoin="round"/><path id="ewXOlTPzSia32" d="M783.675,296.325C765.566,314.434,713.74,300.684,651.549,275.64" fill="none" stroke="rgb(241,199,56)" stroke-width="10" stroke-linecap="round" stroke-linejoin="round"/><path id="ewXOlTPzSia33" d="M783.675,296.325C765.566,314.434,779.316,366.26,804.36,428.451" fill="none" stroke="rgb(241,199,56)" stroke-width="10" stroke-linecap="round" stroke-linejoin="round"/></g></g></g><g id="ewXOlTPzSia34_tr" transform="translate(540,540) rotate(0)"><path id="ewXOlTPzSia34" d="M414.026,406.16C410.028,398.486,418.455,373.838,438.906,361.28C452.637,352.848,458.786,345.911,457.157,340C460.186,345.331,469.439,345.889,485.11,342.142C508.451,336.56,531.839,348.031,534.438,356.284M545.563,723.716C548.161,731.969,571.549,743.44,594.89,737.858C610.562,734.111,619.814,734.669,622.843,740C621.215,734.089,627.363,727.152,641.094,718.72C661.545,706.162,669.972,681.514,665.974,673.84M673.84,414.027C681.514,410.028,706.162,418.455,718.72,438.906C727.152,452.637,734.089,458.786,740,457.157C734.669,460.186,734.111,469.439,737.858,485.11C743.44,508.451,731.969,531.839,723.716,534.438M356.284,545.563C348.031,548.161,336.56,571.549,342.142,594.89C345.889,610.562,345.331,619.814,340,622.843C345.911,621.215,352.848,627.363,361.28,641.094C373.838,661.545,398.486,669.972,406.16,665.974M723.716,545.563C731.969,548.161,743.44,571.549,737.858,594.89C734.111,610.562,734.669,619.814,740,622.843C734.089,621.215,727.152,627.363,718.72,641.094C706.162,661.545,681.514,669.972,673.84,665.974M406.16,414.026C398.486,410.028,373.838,418.455,361.28,438.906C352.848,452.637,345.911,458.786,340,457.157C345.331,460.186,345.889,469.439,342.142,485.11C336.56,508.451,348.031,531.839,356.284,534.438M534.438,723.716C531.839,731.969,508.451,743.44,485.11,737.859C469.439,734.111,460.186,734.669,457.157,740C458.786,734.089,452.637,727.152,438.906,718.72C418.455,706.162,410.028,681.514,414.026,673.84M665.974,406.16C669.972,398.486,661.545,373.838,641.094,361.28C627.363,352.848,621.214,345.911,622.843,340C619.814,345.331,610.561,345.889,594.89,342.142C571.549,336.56,548.161,348.031,545.563,356.284" transform="translate(-540,-540)" fill="none" stroke="rgb(238,184,49)" stroke-width="10" stroke-linecap="round" stroke-linejoin="round"/></g><ellipse id="ewXOlTPzSia35" rx="183.178" ry="183.178" transform="matrix(1 0 0 1 540 540)" fill="none" stroke="rgb(238,184,49)" stroke-width="10" stroke-linecap="round" stroke-linejoin="round"/><g id="ewXOlTPzSia36_tr" transform="translate(540,540) rotate(0)"><path id="ewXOlTPzSia36" d="M540,254L540,274.818M540,805.182L540,826M826,540L805.182,540M274.818,540L254,540M742.233,337.767L727.512,352.488M352.488,727.512L337.767,742.233M742.233,742.233L727.512,727.512M352.488,352.488L337.767,337.767M430.553,275.77L438.519,295.004M641.481,784.996L649.447,804.23M804.23,430.553L784.996,438.519M295.004,641.481L275.77,649.447M649.447,275.77L641.481,295.004M438.519,784.996L430.553,804.229M804.229,649.447L784.996,641.481M295.004,438.519L275.77,430.553M481.758,259.993L485.998,280.375M594.002,799.625L598.242,820.007M820.007,481.758L799.625,485.998M280.375,594.002L259.993,598.242M696.812,300.822L685.397,318.232M394.603,761.768L383.188,779.178M779.178,696.812L761.768,685.397M318.232,394.602L300.822,383.188M379.038,303.595L390.754,320.803M689.246,759.197L700.962,776.405M776.405,379.038L759.197,390.754M320.803,689.246L303.595,700.962M593.346,259.019L589.463,279.472M490.537,800.528L486.654,820.981M820.981,593.346L800.528,589.463M279.472,490.537L259.019,486.654M512.091,255.365L514.123,276.084M565.877,803.916L567.909,824.635M824.635,512.091L803.916,514.123M276.084,565.877L255.365,567.909M721.533,318.998L708.319,335.085M371.681,744.915L358.467,761.002M761.002,721.533L744.915,708.319M335.085,371.681L318.998,358.467M405.291,287.712L415.096,306.076M664.904,773.924L674.709,792.288M792.288,405.291L773.924,415.096M306.076,664.904L287.712,674.709M623.141,266.351L617.089,286.27M462.911,793.73L456.859,813.649M813.649,623.141L793.73,617.089M286.27,462.911L266.351,456.859M454.713,267.013L460.921,286.884M619.079,793.116L625.287,812.987M812.987,454.712L793.116,460.921M286.884,619.079L267.013,625.287M672.724,286.661L663.063,305.102M416.937,774.898L407.276,793.338M793.338,672.724L774.898,663.063M305.102,416.937L286.661,407.276M356.737,320.431L370.077,336.413M709.923,743.587L723.263,759.569M759.569,356.737L743.587,370.077M336.413,709.923L320.431,723.263M565.672,255.155L563.804,275.888M516.196,804.111L514.328,824.845M824.845,565.672L804.111,563.804M275.888,516.196L255.155,514.328" transform="translate(-540,-540)" fill="none" stroke="rgb(241,199,56)" stroke-width="10" stroke-linecap="round" stroke-linejoin="round"/></g><circle id="ewXOlTPzSia37" r="287.035" transform="matrix(1 0 0 1 540 540)" fill="none" stroke="rgb(238,184,49)" stroke-width="10" stroke-linecap="round" stroke-linejoin="round"/><circle id="ewXOlTPzSia38" r="264" transform="matrix(1 0 0 1 540 540)" fill="none" stroke="rgb(238,184,49)" stroke-width="10" stroke-linecap="round" stroke-linejoin="round"/><g id="ewXOlTPzSia39_tr" transform="translate(540,540) rotate(0)"><g id="ewXOlTPzSia39" transform="translate(-540,-540)"><path id="ewXOlTPzSia40" d="M547.685,303.685C547.685,307.929,544.244,311.37,540,311.37C535.756,311.37,532.315,307.929,532.315,303.685C532.315,299.441,535.756,296,540,296C544.244,296,547.685,299.441,547.685,303.685Z" fill="rgb(241,199,56)" stroke="none" stroke-width="1"/><path id="ewXOlTPzSia41" d="M547.685,776.315C547.685,780.559,544.244,784,540,784C535.756,784,532.315,780.559,532.315,776.315C532.315,772.071,535.756,768.63,540,768.63C544.244,768.63,547.685,772.071,547.685,776.315Z" fill="rgb(241,199,56)" stroke="none" stroke-width="1"/><path id="ewXOlTPzSia42" d="M776.315,547.685C772.071,547.685,768.63,544.244,768.63,540C768.63,535.756,772.071,532.315,776.315,532.315C780.559,532.315,784,535.756,784,540C784,544.244,780.559,547.685,776.315,547.685Z" fill="rgb(241,199,56)" stroke="none" stroke-width="1"/><path id="ewXOlTPzSia43" d="M303.685,547.685C299.441,547.685,296,544.244,296,540C296,535.756,299.441,532.315,303.685,532.315C307.929,532.315,311.37,535.756,311.37,540C311.37,544.244,307.929,547.685,303.685,547.685Z" fill="rgb(241,199,56)" stroke="none" stroke-width="1"/><path id="ewXOlTPzSia44" d="M712.534,378.334C709.533,381.335,704.667,381.335,701.666,378.334C698.665,375.333,698.665,370.467,701.666,367.466C704.667,364.465,709.533,364.465,712.534,367.466C715.535,370.467,715.535,375.333,712.534,378.334Z" fill="rgb(241,199,56)" stroke="none" stroke-width="1"/><path id="ewXOlTPzSia45" d="M378.334,712.534C375.333,715.535,370.467,715.535,367.466,712.534C364.465,709.533,364.465,704.667,367.466,701.666C370.467,698.665,375.333,698.665,378.334,701.666C381.335,704.667,381.335,709.533,378.334,712.534Z" fill="rgb(241,199,56)" stroke="none" stroke-width="1"/><path id="ewXOlTPzSia46" d="M701.666,712.534C698.665,709.533,698.665,704.667,701.666,701.666C704.667,698.665,709.533,698.665,712.534,701.666C715.535,704.667,715.535,709.533,712.534,712.534C709.533,715.535,704.667,715.535,701.666,712.534Z" fill="rgb(241,199,56)" stroke="none" stroke-width="1"/><path id="ewXOlTPzSia47" d="M367.466,378.334C364.465,375.333,364.465,370.467,367.466,367.466C370.467,364.465,375.333,364.465,378.334,367.466C381.335,370.467,381.335,375.333,378.334,378.334C375.333,381.335,370.467,381.335,367.466,378.334Z" fill="rgb(241,199,56)" stroke="none" stroke-width="1"/><path id="ewXOlTPzSia48" d="M456.666,318.733C458.29,322.654,456.428,327.149,452.507,328.774C448.586,330.398,444.09,328.536,442.466,324.614C440.842,320.693,442.704,316.198,446.625,314.573C450.546,312.949,455.042,314.811,456.666,318.733Z" fill="rgb(241,199,56)" stroke="none" stroke-width="1"/><path id="ewXOlTPzSia49" d="M637.534,755.386C639.158,759.307,637.296,763.802,633.375,765.427C629.453,767.051,624.958,765.189,623.334,761.268C621.709,757.346,623.572,752.851,627.493,751.227C631.414,749.602,635.91,751.464,637.534,755.386Z" fill="rgb(241,199,56)" stroke="none" stroke-width="1"/><path id="ewXOlTPzSia50" d="M761.267,456.666C757.346,458.29,752.851,456.428,751.226,452.507C749.602,448.586,751.464,444.09,755.386,442.466C759.307,440.842,763.802,442.704,765.427,446.625C767.051,450.547,765.189,455.042,761.267,456.666Z" fill="rgb(241,199,56)" stroke="none" stroke-width="1"/><path id="ewXOlTPzSia51" d="M324.614,637.534C320.693,639.158,316.198,637.296,314.573,633.375C312.949,629.453,314.811,624.958,318.732,623.334C322.654,621.71,327.149,623.572,328.773,627.493C330.398,631.414,328.536,635.91,324.614,637.534Z" fill="rgb(241,199,56)" stroke="none" stroke-width="1"/><path id="ewXOlTPzSia52" d="M637.534,324.614C635.91,328.536,631.414,330.398,627.493,328.773C623.572,327.149,621.709,322.654,623.334,318.733C624.958,314.811,629.453,312.949,633.375,314.573C637.296,316.198,639.158,320.693,637.534,324.614Z" fill="rgb(241,199,56)" stroke="none" stroke-width="1"/><path id="ewXOlTPzSia53" d="M456.666,761.267C455.042,765.189,450.546,767.051,446.625,765.427C442.704,763.802,440.842,759.307,442.466,755.386C444.09,751.464,448.586,749.602,452.507,751.226C456.428,752.851,458.29,757.346,456.666,761.267Z" fill="rgb(241,199,56)" stroke="none" stroke-width="1"/><path id="ewXOlTPzSia54" d="M755.386,637.534C751.464,635.91,749.602,631.414,751.226,627.493C752.851,623.572,757.346,621.71,761.267,623.334C765.189,624.958,767.051,629.453,765.427,633.375C763.802,637.296,759.307,639.158,755.386,637.534Z" fill="rgb(241,199,56)" stroke="none" stroke-width="1"/><path id="ewXOlTPzSia55" d="M318.732,456.666C314.811,455.042,312.949,450.546,314.573,446.625C316.198,442.704,320.693,440.842,324.614,442.466C328.536,444.09,330.398,448.586,328.773,452.507C327.149,456.428,322.654,458.29,318.732,456.666Z" fill="rgb(241,199,56)" stroke="none" stroke-width="1"/><path id="ewXOlTPzSia56" d="M501.435,306.726C502.263,310.889,499.559,314.935,495.397,315.763C491.234,316.591,487.188,313.888,486.36,309.725C485.532,305.562,488.235,301.516,492.398,300.688C496.561,299.86,500.607,302.564,501.435,306.726Z" fill="rgb(241,199,56)" stroke="none" stroke-width="1"/><path id="ewXOlTPzSia57" d="M593.64,770.275C594.468,774.438,591.765,778.484,587.602,779.312C583.439,780.14,579.393,777.436,578.565,773.274C577.737,769.111,580.441,765.065,584.603,764.237C588.766,763.409,592.812,766.112,593.64,770.275Z" fill="rgb(241,199,56)" stroke="none" stroke-width="1"/><path id="ewXOlTPzSia58" d="M773.274,501.435C769.111,502.263,765.065,499.559,764.237,495.396C763.409,491.234,766.112,487.188,770.275,486.36C774.438,485.532,778.484,488.235,779.312,492.398C780.14,496.561,777.436,500.607,773.274,501.435Z" fill="rgb(241,199,56)" stroke="none" stroke-width="1"/><path id="ewXOlTPzSia59" d="M309.725,593.64C305.562,594.468,301.516,591.765,300.688,587.602C299.86,583.439,302.564,579.393,306.726,578.565C310.889,577.737,314.935,580.441,315.763,584.603C316.591,588.766,313.888,592.812,309.725,593.64Z" fill="rgb(241,199,56)" stroke="none" stroke-width="1"/><path id="ewXOlTPzSia60" d="M677.679,347.781C675.321,351.31,670.549,352.259,667.02,349.901C663.491,347.543,662.542,342.771,664.9,339.242C667.258,335.713,672.03,334.763,675.559,337.121C679.088,339.479,680.037,344.252,677.679,347.781Z" fill="rgb(241,199,56)" stroke="none" stroke-width="1"/><path id="ewXOlTPzSia61" d="M415.1,740.758C412.742,744.287,407.97,745.237,404.441,742.879C400.912,740.521,399.963,735.748,402.321,732.219C404.679,728.69,409.451,727.741,412.98,730.099C416.509,732.457,417.458,737.229,415.1,740.758Z" fill="rgb(241,199,56)" stroke="none" stroke-width="1"/><path id="ewXOlTPzSia62" d="M732.219,677.679C728.69,675.321,727.741,670.549,730.099,667.02C732.457,663.491,737.229,662.542,740.758,664.9C744.287,667.258,745.237,672.03,742.879,675.559C740.521,679.088,735.748,680.037,732.219,677.679Z" fill="rgb(241,199,56)" stroke="none" stroke-width="1"/><path id="ewXOlTPzSia63" d="M339.242,415.1C335.713,412.742,334.763,407.97,337.121,404.441C339.479,400.912,344.252,399.962,347.781,402.321C351.31,404.679,352.259,409.451,349.901,412.98C347.543,416.509,342.771,417.458,339.242,415.1Z" fill="rgb(241,199,56)" stroke="none" stroke-width="1"/><path id="ewXOlTPzSia64" d="M415.1,339.242C417.458,342.771,416.509,347.543,412.98,349.901C409.451,352.259,404.679,351.31,402.321,347.781C399.963,344.252,400.912,339.479,404.441,337.121C407.97,334.763,412.742,335.713,415.1,339.242Z" fill="rgb(241,199,56)" stroke="none" stroke-width="1"/><path id="ewXOlTPzSia65" d="M677.679,732.219C680.037,735.748,679.088,740.521,675.559,742.879C672.03,745.237,667.258,744.287,664.9,740.758C662.542,737.229,663.491,732.457,667.02,730.099C670.549,727.741,675.321,728.69,677.679,732.219Z" fill="rgb(241,199,56)" stroke="none" stroke-width="1"/><path id="ewXOlTPzSia66" d="M740.758,415.1C737.229,417.458,732.457,416.509,730.099,412.98C727.741,409.451,728.69,404.679,732.219,402.321C735.748,399.963,740.52,400.912,742.879,404.441C745.237,407.97,744.287,412.742,740.758,415.1Z" fill="rgb(241,199,56)" stroke="none" stroke-width="1"/><path id="ewXOlTPzSia67" d="M347.781,677.679C344.252,680.037,339.479,679.088,337.121,675.559C334.763,672.03,335.713,667.258,339.242,664.9C342.771,662.542,347.543,663.491,349.901,667.02C352.259,670.549,351.31,675.321,347.781,677.679Z" fill="rgb(241,199,56)" stroke="none" stroke-width="1"/><path id="ewXOlTPzSia68" d="M593.64,309.725C592.812,313.888,588.766,316.591,584.603,315.763C580.441,314.935,577.737,310.889,578.565,306.726C579.393,302.564,583.439,299.86,587.602,300.688C591.765,301.516,594.468,305.562,593.64,309.725Z" fill="rgb(241,199,56)" stroke="none" stroke-width="1"/><path id="ewXOlTPzSia69" d="M501.435,773.273C500.607,777.436,496.561,780.14,492.398,779.312C488.235,778.484,485.532,774.438,486.36,770.275C487.188,766.112,491.234,763.409,495.396,764.237C499.559,765.065,502.263,769.111,501.435,773.273Z" fill="rgb(241,199,56)" stroke="none" stroke-width="1"/><path id="ewXOlTPzSia70" d="M770.275,593.64C766.112,592.812,763.409,588.766,764.237,584.603C765.065,580.441,769.111,577.737,773.273,578.565C777.436,579.393,780.14,583.439,779.312,587.602C778.484,591.765,774.438,594.468,770.275,593.64Z" fill="rgb(241,199,56)" stroke="none" stroke-width="1"/><path id="ewXOlTPzSia71" d="M306.726,501.435C302.564,500.607,299.86,496.561,300.688,492.398C301.516,488.235,305.562,485.532,309.725,486.36C313.888,487.188,316.591,491.234,315.763,495.396C314.935,499.559,310.889,502.263,306.726,501.435Z" fill="rgb(241,199,56)" stroke="none" stroke-width="1"/></g></g><g id="ewXOlTPzSia72_tr" transform="translate(540,540) rotate(0)"><g id="ewXOlTPzSia72" transform="translate(-540,-540)"><path id="ewXOlTPzSia73" d="M545.291,377.291C545.291,380.214,542.922,382.583,540,382.583C537.078,382.583,534.709,380.214,534.709,377.291C534.709,374.369,537.078,372,540,372C542.922,372,545.291,374.369,545.291,377.291Z" fill="rgb(241,199,56)" stroke="none" stroke-width="1"/><path id="ewXOlTPzSia74" d="M545.291,702.709C545.291,705.631,542.922,708,540,708C537.078,708,534.709,705.631,534.709,702.709C534.709,699.786,537.078,697.417,540,697.417C542.922,697.417,545.291,699.786,545.291,702.709Z" fill="rgb(241,199,56)" stroke="none" stroke-width="1"/><path id="ewXOlTPzSia75" d="M702.709,545.291C699.786,545.291,697.417,542.922,697.417,540C697.417,537.078,699.786,534.709,702.709,534.709C705.631,534.709,708,537.078,708,540C708,542.922,705.631,545.291,702.709,545.291Z" fill="rgb(241,199,56)" stroke="none" stroke-width="1"/><path id="ewXOlTPzSia76" d="M377.291,545.291C374.369,545.291,372,542.922,372,540C372,537.078,374.369,534.709,377.291,534.709C380.214,534.709,382.583,537.078,382.583,540C382.583,542.922,380.214,545.291,377.291,545.291Z" fill="rgb(241,199,56)" stroke="none" stroke-width="1"/><path id="ewXOlTPzSia77" d="M658.794,428.689C656.728,430.756,653.377,430.756,651.311,428.689C649.244,426.623,649.244,423.272,651.311,421.206C653.377,419.14,656.728,419.14,658.794,421.206C660.86,423.272,660.86,426.623,658.794,428.689Z" fill="rgb(241,199,56)" stroke="none" stroke-width="1"/><path id="ewXOlTPzSia78" d="M428.689,658.794C426.623,660.86,423.272,660.86,421.206,658.794C419.14,656.728,419.14,653.377,421.206,651.311C423.272,649.244,426.623,649.244,428.689,651.311C430.756,653.377,430.756,656.728,428.689,658.794Z" fill="rgb(241,199,56)" stroke="none" stroke-width="1"/><path id="ewXOlTPzSia79" d="M651.311,658.794C649.244,656.728,649.244,653.377,651.311,651.311C653.377,649.244,656.728,649.244,658.794,651.311C660.86,653.377,660.86,656.728,658.794,658.794C656.728,660.86,653.377,660.86,651.311,658.794Z" fill="rgb(241,199,56)" stroke="none" stroke-width="1"/><path id="ewXOlTPzSia80" d="M421.206,428.689C419.14,426.623,419.14,423.272,421.206,421.206C423.272,419.14,426.623,419.14,428.689,421.206C430.756,423.272,430.756,426.623,428.689,428.689C426.623,430.756,423.272,430.756,421.206,428.689Z" fill="rgb(241,199,56)" stroke="none" stroke-width="1"/><path id="ewXOlTPzSia81" d="M482.623,387.652C483.741,390.352,482.459,393.447,479.759,394.565C477.059,395.684,473.964,394.402,472.846,391.702C471.727,389.002,473.009,385.907,475.709,384.788C478.409,383.67,481.504,384.952,482.623,387.652Z" fill="rgb(241,199,56)" stroke="none" stroke-width="1"/><path id="ewXOlTPzSia82" d="M607.154,688.298C608.273,690.998,606.991,694.093,604.291,695.212C601.591,696.33,598.496,695.048,597.377,692.348C596.259,689.648,597.541,686.553,600.241,685.435C602.941,684.316,606.036,685.598,607.154,688.298Z" fill="rgb(241,199,56)" stroke="none" stroke-width="1"/><path id="ewXOlTPzSia83" d="M692.348,482.623C689.648,483.741,686.553,482.459,685.435,479.759C684.316,477.059,685.598,473.964,688.298,472.846C690.998,471.727,694.093,473.009,695.212,475.709C696.33,478.409,695.048,481.504,692.348,482.623Z" fill="rgb(241,199,56)" stroke="none" stroke-width="1"/><path id="ewXOlTPzSia84" d="M391.702,607.154C389.002,608.273,385.907,606.991,384.788,604.291C383.67,601.591,384.952,598.496,387.652,597.377C390.352,596.259,393.447,597.541,394.565,600.241C395.684,602.941,394.402,606.036,391.702,607.154Z" fill="rgb(241,199,56)" stroke="none" stroke-width="1"/><path id="ewXOlTPzSia85" d="M607.154,391.702C606.036,394.402,602.941,395.684,600.241,394.565C597.541,393.447,596.259,390.352,597.377,387.652C598.496,384.952,601.591,383.67,604.291,384.788C606.991,385.907,608.273,389.002,607.154,391.702Z" fill="rgb(241,199,56)" stroke="none" stroke-width="1"/><path id="ewXOlTPzSia86" d="M482.623,692.348C481.504,695.048,478.409,696.33,475.709,695.212C473.009,694.093,471.727,690.998,472.845,688.298C473.964,685.598,477.059,684.316,479.759,685.435C482.459,686.553,483.741,689.648,482.623,692.348Z" fill="rgb(241,199,56)" stroke="none" stroke-width="1"/><path id="ewXOlTPzSia87" d="M688.298,607.154C685.598,606.036,684.316,602.941,685.435,600.241C686.553,597.541,689.648,596.259,692.348,597.377C695.048,598.496,696.33,601.591,695.212,604.291C694.093,606.991,690.998,608.273,688.298,607.154Z" fill="rgb(241,199,56)" stroke="none" stroke-width="1"/><path id="ewXOlTPzSia88" d="M387.652,482.623C384.952,481.504,383.67,478.409,384.788,475.709C385.907,473.009,389.002,471.727,391.702,472.846C394.402,473.964,395.684,477.059,394.565,479.759C393.447,482.459,390.352,483.741,387.652,482.623Z" fill="rgb(241,199,56)" stroke="none" stroke-width="1"/><path id="ewXOlTPzSia89" d="M513.447,379.385C514.017,382.252,512.156,385.037,509.289,385.607C506.423,386.178,503.638,384.316,503.067,381.45C502.497,378.584,504.359,375.798,507.225,375.228C510.091,374.658,512.877,376.519,513.447,379.385Z" fill="rgb(241,199,56)" stroke="none" stroke-width="1"/><path id="ewXOlTPzSia90" d="M576.933,698.55C577.503,701.416,575.641,704.202,572.775,704.772C569.909,705.342,567.123,703.481,566.553,700.615C565.983,697.748,567.844,694.963,570.711,694.393C573.577,693.822,576.362,695.684,576.933,698.55Z" fill="rgb(241,199,56)" stroke="none" stroke-width="1"/><path id="ewXOlTPzSia91" d="M700.615,513.447C697.748,514.017,694.963,512.156,694.393,509.289C693.822,506.423,695.684,503.638,698.55,503.067C701.416,502.497,704.202,504.359,704.772,507.225C705.342,510.091,703.481,512.877,700.615,513.447Z" fill="rgb(241,199,56)" stroke="none" stroke-width="1"/><path id="ewXOlTPzSia92" d="M381.45,576.933C378.584,577.503,375.798,575.641,375.228,572.775C374.658,569.909,376.519,567.123,379.385,566.553C382.252,565.983,385.037,567.844,385.607,570.711C386.178,573.577,384.316,576.362,381.45,576.933Z" fill="rgb(241,199,56)" stroke="none" stroke-width="1"/><path id="ewXOlTPzSia93" d="M634.796,407.652C633.172,410.082,629.886,410.736,627.456,409.112C625.027,407.489,624.373,404.203,625.996,401.773C627.62,399.343,630.906,398.69,633.336,400.313C635.766,401.937,636.419,405.223,634.796,407.652Z" fill="rgb(241,199,56)" stroke="none" stroke-width="1"/><path id="ewXOlTPzSia94" d="M454.003,678.227C452.38,680.657,449.094,681.31,446.664,679.687C444.234,678.063,443.581,674.777,445.204,672.348C446.828,669.918,450.114,669.264,452.544,670.888C454.973,672.511,455.627,675.797,454.003,678.227Z" fill="rgb(241,199,56)" stroke="none" stroke-width="1"/><path id="ewXOlTPzSia95" d="M672.348,634.796C669.918,633.172,669.264,629.886,670.888,627.456C672.511,625.027,675.797,624.373,678.227,625.996C680.657,627.62,681.31,630.906,679.687,633.336C678.063,635.766,674.777,636.419,672.348,634.796Z" fill="rgb(241,199,56)" stroke="none" stroke-width="1"/><path id="ewXOlTPzSia96" d="M401.773,454.003C399.343,452.38,398.69,449.094,400.313,446.664C401.937,444.234,405.223,443.581,407.652,445.204C410.082,446.828,410.736,450.114,409.112,452.544C407.489,454.973,404.203,455.627,401.773,454.003Z" fill="rgb(241,199,56)" stroke="none" stroke-width="1"/><path id="ewXOlTPzSia97" d="M454.003,401.773C455.627,404.203,454.973,407.489,452.544,409.112C450.114,410.736,446.828,410.082,445.204,407.652C443.581,405.223,444.234,401.937,446.664,400.313C449.094,398.69,452.38,399.343,454.003,401.773Z" fill="rgb(241,199,56)" stroke="none" stroke-width="1"/><path id="ewXOlTPzSia98" d="M634.796,672.348C636.419,674.777,635.766,678.063,633.336,679.687C630.906,681.31,627.62,680.657,625.996,678.227C624.373,675.797,625.027,672.511,627.456,670.888C629.886,669.264,633.172,669.918,634.796,672.348Z" fill="rgb(241,199,56)" stroke="none" stroke-width="1"/><path id="ewXOlTPzSia99" d="M678.227,454.003C675.797,455.627,672.511,454.973,670.888,452.544C669.264,450.114,669.918,446.828,672.348,445.204C674.777,443.581,678.063,444.234,679.687,446.664C681.31,449.094,680.657,452.38,678.227,454.003Z" fill="rgb(241,199,56)" stroke="none" stroke-width="1"/><path id="ewXOlTPzSia100" d="M407.652,634.796C405.223,636.419,401.937,635.766,400.313,633.336C398.69,630.906,399.343,627.62,401.773,625.996C404.203,624.373,407.489,625.027,409.112,627.456C410.736,629.886,410.082,633.172,407.652,634.796Z" fill="rgb(241,199,56)" stroke="none" stroke-width="1"/><path id="ewXOlTPzSia101" d="M576.933,381.45C576.362,384.316,573.577,386.178,570.711,385.607C567.844,385.037,565.983,382.252,566.553,379.385C567.123,376.519,569.909,374.658,572.775,375.228C575.641,375.798,577.503,378.584,576.933,381.45Z" fill="rgb(241,199,56)" stroke="none" stroke-width="1"/><path id="ewXOlTPzSia102" d="M513.447,700.615C512.877,703.481,510.091,705.342,507.225,704.772C504.359,704.202,502.497,701.416,503.067,698.55C503.638,695.684,506.423,693.822,509.289,694.393C512.156,694.963,514.017,697.748,513.447,700.615Z" fill="rgb(241,199,56)" stroke="none" stroke-width="1"/><path id="ewXOlTPzSia103" d="M698.55,576.933C695.684,576.362,693.822,573.577,694.393,570.711C694.963,567.844,697.748,565.983,700.614,566.553C703.481,567.123,705.342,569.909,704.772,572.775C704.202,575.641,701.416,577.503,698.55,576.933Z" fill="rgb(241,199,56)" stroke="none" stroke-width="1"/><path id="ewXOlTPzSia104" d="M379.385,513.447C376.519,512.877,374.658,510.091,375.228,507.225C375.798,504.359,378.584,502.497,381.45,503.067C384.316,503.638,386.177,506.423,385.607,509.289C385.037,512.156,382.252,514.017,379.385,513.447Z" fill="rgb(241,199,56)" stroke="none" stroke-width="1"/></g></g><g id="ewXOlTPzSia105" opacity="0.4"><path id="ewXOlTPzSia106" d="M56.6856,965.963C57.6513,958.376,61.7305,950.981,67.114,946.729C73.9023,947.72,81.1322,952.084,85.7623,958.172M56.6856,965.963C53.338,965.461,44.5098,965.339,35.9784,968.869C36.0706,974.853,37.2518,980.947,39.7222,986.248M56.6856,965.963C55.4335,975.801,59.5794,986.574,73.491,993.434M66.3236,1001.93C52.6123,1002.62,44.1223,995.691,39.7222,986.248M66.3236,1001.93C67.806,998.556,73.491,993.434,73.491,993.434M66.3236,1001.93C64.5928,1005.08,64.407,1007.99,64.5086,1011.16M39.7222,986.248C36.485,988.243,29.9972,994.178,29.9437,1001.96C36.1972,1011.75,54.4357,1016.61,64.5086,1011.16M64.5086,1011.16C64.6306,1014.97,66.646,1019.14,66.646,1019.14C68.8082,1018.96,73.8279,1017.83,76.6091,1014.78M73.491,993.434C74.687,994.024,75.9553,994.584,77.2985,995.113M77.2985,995.113C78.2837,995.501,79.3092,995.872,80.3761,996.224C81.124,995.386,81.8268,994.552,82.486,993.723M77.2985,995.113C72.7144,1001.13,72.9946,1009.2,76.6091,1014.78M76.6091,1014.78C78.756,1018.1,82.9236,1020.71,87.1027,1021.33C90.4153,1018.71,92.7181,1014.36,92.9187,1010.41M85.7623,958.172C88.4103,956.063,95.9947,951.544,105.148,950.335C108.06,955.563,110.084,961.431,110.596,967.258M85.7623,958.172C91.7657,966.066,93.5616,977.469,84.9437,990.365M95.4002,994.142C107.618,987.881,111.506,977.636,110.596,967.258M95.4002,994.142C92.428,991.958,84.9437,990.365,84.9437,990.365M95.4002,994.142C98.472,996.001,100.09,998.432,101.587,1001.23M110.596,967.258C114.396,967.366,122.982,969.262,126.922,975.979C126.401,987.584,113.033,1000.91,101.587,1001.23M101.587,1001.23C103.386,1004.59,103.725,1009.21,103.725,1009.21C101.761,1010.13,96.8514,1011.66,92.9187,1010.41M84.9437,990.365C84.2028,991.474,83.3848,992.594,82.486,993.723M82.486,993.723C89.4646,996.642,93.2566,1003.77,92.9187,1010.41" fill="none" stroke="rgb(241,199,56)" stroke-width="6" stroke-linecap="round" stroke-linejoin="round"/><path id="ewXOlTPzSia107" d="M975.198,69.8531L975.198,88.3269L964.328,99.1974L945.854,99.1974L955.656,109L945.854,118.802L964.327,118.802L975.198,129.673L975.198,148.146L985,138.344L994.803,148.146L994.803,129.673L1005.67,118.802L1024.15,118.802L1014.34,109L1024.15,99.1974L1005.67,99.1974L994.803,88.3269L994.803,69.8531L985,79.6555L975.198,69.8531Z" fill="none" stroke="rgb(241,199,56)" stroke-width="6" stroke-linecap="round" stroke-linejoin="round"/><path id="ewXOlTPzSia108" d="M975.24,109L985,99.2395L994.76,109L985,118.76L975.24,109Z" fill="none" stroke="rgb(232,153,35)" stroke-width="6" stroke-linecap="round" stroke-linejoin="round"/><ellipse id="ewXOlTPzSia109" rx="3.35379" ry="3.35381" transform="matrix(1 0 0 1 985.001 59.3538)" fill="rgb(232,153,35)" stroke="none" stroke-width="1"/><ellipse id="ewXOlTPzSia110" rx="3.35379" ry="3.35381" transform="matrix(1 0 0 1 985.001 158.646)" fill="rgb(232,153,35)" stroke="none" stroke-width="1"/><ellipse id="ewXOlTPzSia111" rx="3.35381" ry="3.35382" transform="matrix(0 1 -1 0 1034.65 109)" fill="rgb(232,153,35)" stroke="none" stroke-width="1"/><ellipse id="ewXOlTPzSia112" rx="3.35381" ry="3.35382" transform="matrix(0 1 -1 0 935.35 109)" fill="rgb(232,153,35)" stroke="none" stroke-width="1"/></g><path id="ewXOlTPzSia113" d="M400.189,472.979L409.698,472.979L409.698,443.251C409.698,442.485,409.611,441.876,409.437,441.423C409.263,440.97,409.019,440.622,408.706,440.378C408.392,440.099,408.009,439.925,407.556,439.855C407.138,439.751,406.668,439.699,406.146,439.699C405.379,439.699,404.421,439.821,403.272,440.064C402.157,440.308,400.973,440.674,399.719,441.162C398.465,441.649,397.194,442.259,395.905,442.99C394.651,443.687,393.519,444.488,392.509,445.394C391.534,446.299,390.733,447.309,390.106,448.424C389.479,449.538,389.166,450.74,389.166,452.029C389.166,453.143,389.305,454.032,389.583,454.693C389.897,455.355,390.245,455.86,390.628,456.208C391.012,456.522,391.395,456.731,391.778,456.835C392.196,456.905,392.492,456.94,392.666,456.94C393.537,456.94,394.251,456.801,394.808,456.522C395.365,456.208,395.87,455.895,396.323,455.582C396.776,455.233,397.194,454.92,397.577,454.641C397.995,454.328,398.465,454.171,398.988,454.171C399.406,454.171,399.841,454.275,400.294,454.484C400.782,454.659,401.217,454.955,401.6,455.373C402.018,455.791,402.366,456.348,402.645,457.044C402.924,457.706,403.063,458.525,403.063,459.5C403.063,460.893,402.784,462.095,402.227,463.105C401.705,464.115,401.008,464.968,400.137,465.665C399.301,466.327,398.326,466.832,397.211,467.18C396.132,467.494,395.052,467.65,393.972,467.65C392.3,467.65,390.785,467.372,389.427,466.814C388.103,466.222,386.971,465.421,386.031,464.411C385.09,463.401,384.376,462.217,383.889,460.858C383.401,459.5,383.157,458.055,383.157,456.522C383.157,454.119,383.593,451.924,384.463,449.939C385.334,447.919,386.518,446.108,388.016,444.505C389.549,442.903,391.325,441.51,393.345,440.326C395.4,439.107,397.612,438.097,399.98,437.295C402.349,436.494,404.822,435.902,407.399,435.519C409.977,435.101,412.554,434.892,415.132,434.892C417.988,434.892,420.2,435.171,421.767,435.728C423.369,436.25,424.536,436.895,425.268,437.661C426.034,438.427,426.487,439.229,426.626,440.064C426.765,440.9,426.835,441.597,426.835,442.154L426.835,472.979L446.062,472.979L446.062,447.849C446.062,442.102,446.81,437.208,448.308,433.168C449.806,429.128,451.739,425.836,454.107,423.293C456.476,420.716,459.123,418.853,462.049,417.703C464.975,416.519,467.883,415.927,470.774,415.927C472.759,415.927,474.64,416.083,476.417,416.397C478.228,416.676,479.795,417.111,481.119,417.703C482.477,418.295,483.557,419.044,484.358,419.95C485.159,420.82,485.56,421.848,485.56,423.032C485.56,423.555,485.472,424.06,485.298,424.547C485.159,425,484.95,425.418,484.671,425.801C484.393,426.184,484.062,426.498,483.679,426.742C483.33,426.951,482.965,427.055,482.582,427.055C481.955,427.055,481.397,426.864,480.91,426.48C480.422,426.097,479.952,425.627,479.499,425.07C479.081,424.478,478.663,423.851,478.245,423.189C477.827,422.492,477.357,421.865,476.834,421.308C476.312,420.716,475.72,420.228,475.058,419.845C474.396,419.462,473.613,419.271,472.707,419.271C470.582,419.271,468.893,419.863,467.639,421.047C466.385,422.196,465.427,423.903,464.766,426.167C464.104,428.396,463.668,431.183,463.459,434.526C463.285,437.87,463.198,441.701,463.198,446.021L463.198,472.979L473.7,472.979L473.7,477.577L463.198,477.577L463.198,509.343C463.198,510.353,463.407,511.171,463.825,511.798C464.278,512.39,464.957,512.687,465.863,512.687C466.838,512.687,467.744,512.512,468.58,512.164C469.416,511.816,470.147,511.485,470.774,511.171L471.662,513.104C470.896,513.627,469.99,514.167,468.945,514.724C467.935,515.316,466.803,515.856,465.549,516.344C464.33,516.866,463.007,517.284,461.579,517.598C460.185,517.946,458.722,518.12,457.19,518.12C454.821,518.12,452.906,517.807,451.443,517.18C449.98,516.553,448.848,515.717,448.047,514.672C447.246,513.662,446.706,512.512,446.427,511.224C446.183,509.935,446.062,508.629,446.062,507.305L446.062,477.577L426.835,477.577L426.835,503.596C426.835,508.333,425.964,512.46,424.223,515.978C422.516,519.496,420.165,522.422,417.169,524.755C414.174,527.124,410.639,528.883,406.563,530.032C402.523,531.216,398.187,531.809,393.554,531.809C391.778,531.809,390.071,531.652,388.434,531.338C386.797,531.06,385.352,530.659,384.098,530.137C382.844,529.614,381.851,528.987,381.12,528.256C380.353,527.559,379.97,526.793,379.97,525.957C379.97,525.33,380.057,524.686,380.231,524.024C380.406,523.397,380.667,522.822,381.015,522.3C381.363,521.777,381.799,521.342,382.321,520.994C382.809,520.645,383.366,520.471,383.993,520.471C384.376,520.471,384.707,520.663,384.986,521.046C385.299,521.429,385.613,521.899,385.926,522.457C386.24,523.049,386.588,523.676,386.971,524.337C387.389,524.999,387.912,525.609,388.539,526.166C389.2,526.758,389.984,527.246,390.89,527.629C391.795,528.012,392.927,528.204,394.286,528.204C396.968,528.204,399.266,527.716,401.182,526.741C403.133,525.765,404.735,524.39,405.989,522.613C407.243,520.837,408.166,518.712,408.758,516.239C409.385,513.801,409.698,511.119,409.698,508.193L409.698,477.577L400.189,477.577L400.189,472.979ZM505.988,485.937C505.988,485.066,505.709,484.404,505.152,483.951C504.595,483.498,503.881,483.272,503.01,483.272C501.791,483.272,500.624,483.551,499.509,484.108C498.43,484.665,497.472,485.484,496.636,486.563C495.8,487.643,495.138,488.984,494.65,490.586C494.163,492.154,493.919,493.982,493.919,496.072C493.919,498.092,494.058,499.764,494.337,501.088C494.65,502.411,495.051,503.474,495.539,504.275C496.061,505.041,496.653,505.581,497.315,505.895C497.977,506.208,498.673,506.365,499.405,506.365C500.31,506.365,501.164,506.138,501.965,505.686C502.766,505.198,503.463,504.588,504.055,503.857C504.647,503.125,505.117,502.307,505.465,501.401C505.814,500.496,505.988,499.59,505.988,498.685L505.988,485.937ZM497.681,463.053C496.496,463.053,495.399,463.192,494.389,463.471C493.379,463.749,492.508,464.098,491.777,464.516C491.045,464.934,490.471,465.404,490.053,465.926C489.635,466.414,489.426,466.884,489.426,467.337C489.426,467.859,489.687,468.243,490.209,468.486C490.767,468.695,491.376,468.957,492.038,469.27C492.7,469.549,493.292,469.967,493.814,470.524C494.372,471.046,494.65,471.865,494.65,472.979C494.65,473.711,494.494,474.39,494.18,475.017C493.902,475.609,493.501,476.149,492.979,476.637C492.491,477.09,491.899,477.455,491.202,477.734C490.54,477.978,489.844,478.1,489.112,478.1C487.162,478.1,485.577,477.438,484.358,476.114C483.174,474.791,482.582,473.032,482.582,470.837C482.582,468.713,483.139,466.902,484.253,465.404C485.368,463.871,486.813,462.617,488.59,461.642C490.401,460.667,492.439,459.953,494.703,459.5C496.967,459.012,499.231,458.769,501.495,458.769C504.211,458.769,506.806,459.065,509.279,459.657C511.752,460.249,513.929,461.189,515.81,462.478C517.726,463.767,519.241,465.404,520.355,467.389C521.505,469.375,522.08,471.778,522.08,474.599L522.08,504.118C522.08,504.432,522.097,504.78,522.132,505.163C522.167,505.546,522.254,505.895,522.393,506.208C522.532,506.521,522.741,506.783,523.02,506.992C523.299,507.201,523.699,507.305,524.222,507.305C524.849,507.305,525.423,507.079,525.946,506.626C526.503,506.138,526.991,505.651,527.409,505.163L528.715,506.26C528.192,506.992,527.565,507.793,526.834,508.664C526.103,509.534,525.214,510.353,524.169,511.119C523.125,511.885,521.905,512.53,520.512,513.052C519.119,513.575,517.534,513.836,515.758,513.836C513.563,513.836,511.613,513.192,509.906,511.903C508.2,510.579,507.085,508.559,506.562,505.842C505.448,507.34,504.281,508.594,503.062,509.604C501.878,510.614,500.659,511.433,499.405,512.06C498.151,512.687,496.88,513.139,495.591,513.418C494.337,513.697,493.066,513.836,491.777,513.836C490.105,513.836,488.485,513.575,486.918,513.052C485.351,512.53,483.94,511.711,482.686,510.597C481.467,509.447,480.474,507.967,479.708,506.156C478.977,504.345,478.611,502.133,478.611,499.521C478.611,496.351,479.238,493.756,480.492,491.736C481.746,489.716,483.383,488.026,485.403,486.668C487.458,485.275,489.774,484.09,492.352,483.115C494.964,482.14,497.628,481.112,500.345,480.033C502.365,479.232,503.828,478.047,504.734,476.48C505.674,474.878,506.145,473.241,506.145,471.569C506.145,468.991,505.378,466.936,503.846,465.404C502.348,463.836,500.293,463.053,497.681,463.053ZM536.395,467.964C536.395,466.954,536.151,466.083,535.664,465.352C535.211,464.585,534.427,464.202,533.312,464.202C532.72,464.202,532.215,464.307,531.797,464.516C531.379,464.725,530.927,465.021,530.439,465.404L529.342,464.098C530.143,463.436,531.031,462.792,532.006,462.165C533.016,461.503,534.096,460.928,535.246,460.44C536.395,459.953,537.632,459.552,538.955,459.239C540.279,458.925,541.672,458.769,543.135,458.769C544.702,458.769,546.043,459.012,547.158,459.5C548.272,459.988,549.195,460.58,549.927,461.276C550.693,461.938,551.268,462.652,551.651,463.418C552.034,464.15,552.26,464.777,552.33,465.299C553.027,464.324,553.845,463.436,554.786,462.635C555.761,461.834,556.806,461.154,557.92,460.597C559.07,460.005,560.271,459.552,561.525,459.239C562.814,458.925,564.138,458.769,565.496,458.769C568.283,458.769,570.808,459.343,573.072,460.493C575.336,461.642,577.269,463.349,578.871,465.613C580.508,467.877,581.762,470.681,582.633,474.024C583.504,477.368,583.939,481.234,583.939,485.623C583.939,490.708,583.399,495.045,582.319,498.632C581.274,502.185,579.881,505.093,578.14,507.357C576.433,509.621,574.465,511.276,572.236,512.321C570.042,513.331,567.795,513.836,565.496,513.836C563.58,513.836,561.891,513.644,560.428,513.261C559,512.878,557.764,512.408,556.719,511.851C555.674,511.293,554.803,510.736,554.106,510.179C553.41,509.587,552.853,509.099,552.435,508.716L552.435,534.212C552.435,534.665,552.365,535.205,552.226,535.832C552.086,536.458,551.738,537.051,551.181,537.608C550.658,538.2,549.857,538.705,548.777,539.123C547.732,539.541,546.287,539.75,544.441,539.75C542.595,539.75,541.132,539.524,540.052,539.071C539.007,538.653,538.206,538.13,537.649,537.503C537.092,536.911,536.743,536.302,536.604,535.675C536.465,535.083,536.395,534.595,536.395,534.212L536.395,467.964ZM552.435,501.245C552.435,501.523,552.556,502.011,552.8,502.708C553.044,503.404,553.427,504.118,553.95,504.85C554.472,505.581,555.134,506.243,555.935,506.835C556.771,507.392,557.781,507.671,558.965,507.671C560.498,507.671,561.804,507.096,562.884,505.947C563.964,504.763,564.852,503.178,565.548,501.192C566.245,499.172,566.75,496.839,567.063,494.191C567.377,491.509,567.534,488.653,567.534,485.623C567.534,481.896,567.325,478.744,566.907,476.167C566.524,473.589,565.949,471.517,565.183,469.949C564.416,468.347,563.493,467.198,562.414,466.501C561.369,465.77,560.184,465.404,558.861,465.404C558.095,465.404,557.328,465.63,556.562,466.083C555.796,466.501,555.099,467.041,554.472,467.703C553.88,468.33,553.392,469.044,553.009,469.845C552.626,470.646,552.435,471.412,552.435,472.144L552.435,501.245ZM594.493,467.964C594.493,466.954,594.249,466.083,593.761,465.352C593.308,464.585,592.525,464.202,591.41,464.202C590.818,464.202,590.313,464.307,589.895,464.516C589.477,464.725,589.024,465.021,588.537,465.404L587.439,464.098C588.241,463.436,589.129,462.792,590.104,462.165C591.114,461.503,592.194,460.928,593.343,460.44C594.493,459.953,595.729,459.552,597.053,459.239C598.376,458.925,599.77,458.769,601.232,458.769C602.8,458.769,604.141,459.012,605.255,459.5C606.37,459.988,607.293,460.58,608.024,461.276C608.791,461.938,609.365,462.652,609.749,463.418C610.132,464.15,610.358,464.777,610.428,465.299C611.124,464.324,611.943,463.436,612.883,462.635C613.859,461.834,614.903,461.154,616.018,460.597C617.167,460.005,618.369,459.552,619.623,459.239C620.912,458.925,622.235,458.769,623.594,458.769C626.38,458.769,628.905,459.343,631.169,460.493C633.433,461.642,635.367,463.349,636.969,465.613C638.606,467.877,639.86,470.681,640.73,474.024C641.601,477.368,642.037,481.234,642.037,485.623C642.037,490.708,641.497,495.045,640.417,498.632C639.372,502.185,637.979,505.093,636.237,507.357C634.531,509.621,632.563,511.276,630.333,512.321C628.139,513.331,625.893,513.836,623.594,513.836C621.678,513.836,619.989,513.644,618.526,513.261C617.098,512.878,615.861,512.408,614.816,511.851C613.771,511.293,612.901,510.736,612.204,510.179C611.507,509.587,610.95,509.099,610.532,508.716L610.532,534.212C610.532,534.665,610.463,535.205,610.323,535.832C610.184,536.458,609.836,537.051,609.278,537.608C608.756,538.2,607.955,538.705,606.875,539.123C605.83,539.541,604.385,539.75,602.539,539.75C600.693,539.75,599.23,539.524,598.15,539.071C597.105,538.653,596.304,538.13,595.747,537.503C595.189,536.911,594.841,536.302,594.702,535.675C594.562,535.083,594.493,534.595,594.493,534.212L594.493,467.964ZM610.532,501.245C610.532,501.523,610.654,502.011,610.898,502.708C611.142,503.404,611.525,504.118,612.047,504.85C612.57,505.581,613.232,506.243,614.033,506.835C614.869,507.392,615.879,507.671,617.063,507.671C618.596,507.671,619.902,507.096,620.981,505.947C622.061,504.763,622.949,503.178,623.646,501.192C624.343,499.172,624.848,496.839,625.161,494.191C625.475,491.509,625.631,488.653,625.631,485.623C625.631,481.896,625.422,478.744,625.004,476.167C624.621,473.589,624.047,471.517,623.28,469.949C622.514,468.347,621.591,467.198,620.511,466.501C619.466,465.77,618.282,465.404,616.958,465.404C616.192,465.404,615.426,465.63,614.66,466.083C613.893,466.501,613.197,467.041,612.57,467.703C611.978,468.33,611.49,469.044,611.107,469.845C610.724,470.646,610.532,471.412,610.532,472.144L610.532,501.245ZM693.604,466.971C693.604,473.345,692.977,479.51,691.723,485.466C690.504,491.388,688.797,496.96,686.603,502.185C684.443,507.375,681.866,512.112,678.87,516.396C675.875,520.715,672.618,524.407,669.1,527.472C665.582,530.537,661.855,532.923,657.919,534.63C654.018,536.337,650.065,537.19,646.06,537.19C642.994,537.19,640.626,536.667,638.954,535.623C637.282,534.612,636.446,533.237,636.446,531.495C636.446,530.833,636.551,530.189,636.76,529.562C636.969,528.935,637.247,528.378,637.596,527.89C637.944,527.403,638.362,527.002,638.85,526.688C639.337,526.41,639.86,526.271,640.417,526.271C641.079,526.271,641.636,526.601,642.089,527.263C642.507,527.925,642.96,528.639,643.447,529.405C643.935,530.206,644.527,530.938,645.224,531.6C645.92,532.261,646.878,532.592,648.097,532.592C649.665,532.592,651.302,532.314,653.008,531.756C654.715,531.234,656.422,530.468,658.128,529.458C659.87,528.447,661.594,527.211,663.301,525.748C665.042,524.32,666.749,522.718,668.421,520.941C667.446,517.424,666.314,513.592,665.025,509.447C663.771,505.268,662.43,501.07,661.002,496.856C659.609,492.641,658.163,488.584,656.666,484.683C655.203,480.747,653.757,477.264,652.329,474.233C650.936,471.203,649.577,468.782,648.254,466.971C646.965,465.125,645.816,464.202,644.806,464.202C644.144,464.202,643.639,464.307,643.291,464.516C642.907,464.725,642.472,465.021,641.984,465.404L640.939,464.098C641.636,463.506,642.368,462.896,643.134,462.269C643.9,461.642,644.806,461.067,645.851,460.545C646.896,460.022,648.115,459.604,649.508,459.291C650.901,458.943,652.573,458.769,654.523,458.769C656.648,458.769,658.616,459.256,660.427,460.231C662.273,461.172,663.945,462.931,665.443,465.508C666.523,467.424,667.637,469.723,668.787,472.405C669.971,475.087,671.155,478.082,672.339,481.391C673.524,484.7,674.708,488.288,675.892,492.154C677.111,495.985,678.33,500.008,679.549,504.223C681.709,499.695,683.45,494.905,684.774,489.855C686.097,484.77,686.759,479.545,686.759,474.181C686.759,472.265,686.637,470.628,686.394,469.27C686.15,467.912,685.871,466.762,685.558,465.822C685.244,464.847,684.965,464.028,684.722,463.366C684.478,462.67,684.356,462.06,684.356,461.538C684.356,461.015,684.565,460.58,684.983,460.231C685.401,459.848,685.906,459.552,686.498,459.343C687.09,459.134,687.682,458.995,688.274,458.925C688.901,458.821,689.424,458.769,689.842,458.769C690.782,458.769,691.496,458.96,691.984,459.343C692.506,459.726,692.889,460.284,693.133,461.015C693.377,461.712,693.516,462.565,693.551,463.575C693.586,464.585,693.604,465.717,693.604,466.971ZM320.305,577.087C320.305,575.973,319.887,575.154,319.051,574.632C318.25,574.075,317.362,573.796,316.387,573.796C314.436,573.796,312.538,574.092,310.692,574.684C308.846,575.241,307.191,576.025,305.729,577.035C304.266,578.01,303.081,579.195,302.176,580.588C301.305,581.946,300.87,583.427,300.87,585.029C300.87,586.143,301.009,587.032,301.288,587.693C301.601,588.355,301.949,588.86,302.333,589.208C302.716,589.522,303.099,589.731,303.482,589.835C303.9,589.905,304.196,589.94,304.37,589.94C305.241,589.94,305.955,589.801,306.512,589.522C307.069,589.208,307.575,588.895,308.027,588.582C308.48,588.233,308.898,587.92,309.281,587.641C309.699,587.328,310.169,587.171,310.692,587.171C311.11,587.171,311.545,587.275,311.998,587.484C312.486,587.659,312.921,587.955,313.304,588.373C313.722,588.791,314.07,589.348,314.349,590.044C314.628,590.706,314.767,591.525,314.767,592.5C314.767,593.893,314.488,595.095,313.931,596.105C313.409,597.115,312.712,597.968,311.841,598.665C311.005,599.327,310.03,599.832,308.916,600.18C307.836,600.494,306.756,600.65,305.676,600.65C304.004,600.65,302.489,600.372,301.131,599.814C299.807,599.222,298.675,598.421,297.735,597.411C296.794,596.401,296.08,595.217,295.593,593.858C295.105,592.5,294.861,591.055,294.861,589.522C294.861,585.168,295.958,581.598,298.153,578.812C300.347,575.99,303.325,573.778,307.087,572.176C310.883,570.539,315.29,569.425,320.305,568.833C325.356,568.206,330.72,567.892,336.397,567.892C342.875,567.892,348.727,568.554,353.952,569.877C359.211,571.166,363.704,573.273,367.431,576.199C371.158,579.125,374.032,582.956,376.052,587.693C378.072,592.396,379.082,598.143,379.082,604.935C379.082,611.727,378.002,617.752,375.843,623.012C373.718,628.271,370.792,632.695,367.065,636.282C363.373,639.835,359.02,642.552,354.004,644.433C349.023,646.279,343.677,647.202,337.964,647.202C334.168,647.202,331.103,647.01,328.769,646.627C326.47,646.279,324.694,645.669,323.44,644.798C322.186,643.893,321.35,642.708,320.932,641.246C320.514,639.748,320.305,637.867,320.305,635.603L320.305,577.087ZM337.546,636.073C337.546,638.059,337.982,639.487,338.853,640.357C339.758,641.193,341.082,641.611,342.823,641.611C345.436,641.611,347.839,641.037,350.033,639.887C352.262,638.738,354.178,636.77,355.78,633.983C357.382,631.162,358.636,627.418,359.542,622.75C360.448,618.083,360.9,612.214,360.9,605.144C360.9,600.407,360.604,596.314,360.012,592.866C359.455,589.383,358.706,586.439,357.766,584.036C356.825,581.598,355.745,579.63,354.526,578.132C353.342,576.6,352.123,575.416,350.869,574.58C349.615,573.709,348.379,573.134,347.16,572.855C345.975,572.542,344.913,572.385,343.973,572.385C341.709,572.385,340.072,572.89,339.062,573.9C338.051,574.91,337.546,576.722,337.546,579.334L337.546,636.073ZM403.376,622.019C403.376,623.134,403.533,624.353,403.847,625.676C404.195,626.965,404.683,628.271,405.31,629.595C405.937,630.918,406.703,632.19,407.608,633.409C408.549,634.593,409.611,635.655,410.795,636.596C412.014,637.536,413.355,638.285,414.818,638.842C416.281,639.4,417.883,639.678,419.625,639.678C420.844,639.678,421.976,639.539,423.021,639.26C424.066,638.982,425.041,638.598,425.947,638.111C426.852,637.623,427.723,637.066,428.559,636.439C429.395,635.777,430.231,635.081,431.067,634.349L432.373,635.603C431.572,636.683,430.544,637.867,429.291,639.156C428.037,640.444,426.521,641.664,424.745,642.813C422.969,643.928,420.896,644.868,418.528,645.634C416.159,646.366,413.46,646.731,410.43,646.731C407.399,646.731,404.439,646.192,401.548,645.112C398.692,643.997,396.149,642.343,393.92,640.148C391.691,637.954,389.897,635.22,388.539,631.946C387.215,628.672,386.553,624.84,386.553,620.452C386.553,617.282,386.954,614.374,387.755,611.727C388.556,609.079,389.636,606.694,390.994,604.569C392.387,602.444,393.99,600.581,395.801,598.979C397.647,597.376,399.58,596.053,401.6,595.008C403.62,593.928,405.675,593.127,407.765,592.604C409.89,592.047,411.927,591.769,413.878,591.769C416.455,591.769,418.702,592.047,420.618,592.604C422.533,593.162,424.118,593.911,425.372,594.851C426.661,595.792,427.619,596.889,428.246,598.143C428.873,599.362,429.186,600.65,429.186,602.009C429.186,603.646,428.716,605.126,427.775,606.45C426.835,607.738,425.581,608.87,424.014,609.846L403.376,622.019ZM413.878,611.413C414.331,611.134,414.696,610.873,414.975,610.629C415.289,610.351,415.532,610.037,415.707,609.689C415.881,609.306,416.003,608.853,416.072,608.331C416.177,607.773,416.229,607.094,416.229,606.293C416.229,605.422,416.125,604.464,415.916,603.419C415.741,602.34,415.428,601.33,414.975,600.389C414.522,599.449,413.948,598.665,413.251,598.038C412.554,597.411,411.718,597.098,410.743,597.098C409.489,597.098,408.41,597.481,407.504,598.247C406.633,598.979,405.902,599.936,405.31,601.121C404.752,602.305,404.299,603.663,403.951,605.196C403.638,606.694,403.394,608.209,403.22,609.741C403.046,611.274,402.941,612.754,402.906,614.182C402.871,615.575,402.854,616.76,402.854,617.735L413.878,611.413ZM451.861,622.019C451.861,623.134,452.018,624.353,452.331,625.676C452.679,626.965,453.167,628.271,453.794,629.595C454.421,630.918,455.187,632.19,456.093,633.409C457.033,634.593,458.096,635.655,459.28,636.596C460.499,637.536,461.84,638.285,463.303,638.842C464.766,639.4,466.368,639.678,468.109,639.678C469.328,639.678,470.46,639.539,471.505,639.26C472.55,638.982,473.526,638.598,474.431,638.111C475.337,637.623,476.208,637.066,477.043,636.439C477.879,635.777,478.715,635.081,479.551,634.349L480.857,635.603C480.056,636.683,479.029,637.867,477.775,639.156C476.521,640.444,475.006,641.664,473.229,642.813C471.453,643.928,469.381,644.868,467.012,645.634C464.644,646.366,461.944,646.731,458.914,646.731C455.884,646.731,452.923,646.192,450.032,645.112C447.176,643.997,444.633,642.343,442.404,640.148C440.175,637.954,438.381,635.22,437.023,631.946C435.699,628.672,435.038,624.84,435.038,620.452C435.038,617.282,435.438,614.374,436.239,611.727C437.04,609.079,438.12,606.694,439.479,604.569C440.872,602.444,442.474,600.581,444.285,598.979C446.131,597.376,448.064,596.053,450.084,595.008C452.105,593.928,454.16,593.127,456.25,592.604C458.374,592.047,460.412,591.769,462.362,591.769C464.94,591.769,467.186,592.047,469.102,592.604C471.018,593.162,472.603,593.911,473.856,594.851C475.145,595.792,476.103,596.889,476.73,598.143C477.357,599.362,477.67,600.65,477.67,602.009C477.67,603.646,477.2,605.126,476.26,606.45C475.319,607.738,474.065,608.87,472.498,609.846L451.861,622.019ZM462.362,611.413C462.815,611.134,463.181,610.873,463.459,610.629C463.773,610.351,464.017,610.037,464.191,609.689C464.365,609.306,464.487,608.853,464.557,608.331C464.661,607.773,464.713,607.094,464.713,606.293C464.713,605.422,464.609,604.464,464.4,603.419C464.226,602.34,463.912,601.33,463.459,600.389C463.007,599.449,462.432,598.665,461.735,598.038C461.039,597.411,460.203,597.098,459.228,597.098C457.974,597.098,456.894,597.481,455.988,598.247C455.118,598.979,454.386,599.936,453.794,601.121C453.237,602.305,452.784,603.663,452.436,605.196C452.122,606.694,451.878,608.209,451.704,609.741C451.53,611.274,451.425,612.754,451.391,614.182C451.356,615.575,451.338,616.76,451.338,617.735L462.362,611.413ZM488.538,600.964C488.538,599.954,488.294,599.083,487.806,598.352C487.353,597.585,486.57,597.202,485.455,597.202C484.863,597.202,484.358,597.307,483.94,597.516C483.522,597.725,483.069,598.021,482.582,598.404L481.484,597.098C482.285,596.436,483.174,595.792,484.149,595.165C485.159,594.503,486.239,593.928,487.388,593.44C488.538,592.953,489.774,592.552,491.098,592.239C492.421,591.925,493.814,591.769,495.277,591.769C496.845,591.769,498.186,592.012,499.3,592.5C500.415,592.988,501.338,593.58,502.069,594.276C502.836,594.938,503.41,595.652,503.793,596.418C504.177,597.15,504.403,597.777,504.473,598.299C505.169,597.324,505.988,596.436,506.928,595.635C507.903,594.834,508.948,594.154,510.063,593.597C511.212,593.005,512.414,592.552,513.668,592.239C514.957,591.925,516.28,591.769,517.639,591.769C520.425,591.769,522.95,592.343,525.214,593.493C527.478,594.642,529.411,596.349,531.014,598.613C532.651,600.877,533.905,603.681,534.775,607.024C535.646,610.368,536.082,614.234,536.082,618.623C536.082,623.708,535.542,628.045,534.462,631.632C533.417,635.185,532.024,638.093,530.282,640.357C528.576,642.621,526.608,644.276,524.378,645.321C522.184,646.331,519.938,646.836,517.639,646.836C515.723,646.836,514.034,646.644,512.571,646.261C511.143,645.878,509.906,645.408,508.861,644.851C507.816,644.293,506.946,643.736,506.249,643.179C505.552,642.587,504.995,642.099,504.577,641.716L504.577,667.212C504.577,667.665,504.507,668.205,504.368,668.832C504.229,669.458,503.881,670.051,503.323,670.608C502.801,671.2,502,671.705,500.92,672.123C499.875,672.541,498.43,672.75,496.583,672.75C494.737,672.75,493.275,672.524,492.195,672.071C491.15,671.653,490.349,671.13,489.792,670.503C489.234,669.911,488.886,669.302,488.747,668.675C488.607,668.083,488.538,667.595,488.538,667.212L488.538,600.964ZM504.577,634.245C504.577,634.523,504.699,635.011,504.943,635.708C505.187,636.404,505.57,637.118,506.092,637.85C506.615,638.581,507.277,639.243,508.078,639.835C508.914,640.392,509.924,640.671,511.108,640.671C512.64,640.671,513.947,640.096,515.026,638.947C516.106,637.763,516.994,636.178,517.691,634.192C518.388,632.172,518.893,629.839,519.206,627.191C519.52,624.509,519.676,621.653,519.676,618.623C519.676,614.896,519.467,611.744,519.049,609.167C518.666,606.589,518.091,604.517,517.325,602.949C516.559,601.347,515.636,600.198,514.556,599.501C513.511,598.77,512.327,598.404,511.003,598.404C510.237,598.404,509.471,598.63,508.705,599.083C507.938,599.501,507.242,600.041,506.615,600.703C506.023,601.33,505.535,602.044,505.152,602.845C504.769,603.646,504.577,604.412,504.577,605.144L504.577,634.245ZM569.519,618.937C569.519,618.066,569.24,617.404,568.683,616.951C568.126,616.498,567.412,616.272,566.541,616.272C565.322,616.272,564.155,616.551,563.041,617.108C561.961,617.665,561.003,618.484,560.167,619.563C559.331,620.643,558.669,621.984,558.182,623.586C557.694,625.154,557.45,626.982,557.45,629.072C557.45,631.092,557.59,632.764,557.868,634.088C558.182,635.411,558.582,636.474,559.07,637.275C559.592,638.041,560.184,638.581,560.846,638.895C561.508,639.208,562.205,639.365,562.936,639.365C563.842,639.365,564.695,639.138,565.496,638.686C566.297,638.198,566.994,637.588,567.586,636.857C568.178,636.125,568.648,635.307,568.997,634.401C569.345,633.496,569.519,632.59,569.519,631.685L569.519,618.937ZM561.212,596.053C560.028,596.053,558.931,596.192,557.92,596.471C556.91,596.749,556.04,597.098,555.308,597.516C554.577,597.934,554.002,598.404,553.584,598.926C553.166,599.414,552.957,599.884,552.957,600.337C552.957,600.859,553.218,601.243,553.741,601.486C554.298,601.695,554.908,601.957,555.569,602.27C556.231,602.549,556.823,602.967,557.346,603.524C557.903,604.046,558.182,604.865,558.182,605.979C558.182,606.711,558.025,607.39,557.711,608.017C557.433,608.609,557.032,609.149,556.51,609.637C556.022,610.09,555.43,610.455,554.733,610.734C554.072,610.978,553.375,611.1,552.644,611.1C550.693,611.1,549.108,610.438,547.889,609.114C546.705,607.791,546.113,606.032,546.113,603.837C546.113,601.713,546.67,599.902,547.785,598.404C548.899,596.871,550.345,595.617,552.121,594.642C553.932,593.667,555.97,592.953,558.234,592.5C560.498,592.012,562.762,591.769,565.026,591.769C567.743,591.769,570.338,592.065,572.811,592.657C575.284,593.249,577.46,594.189,579.341,595.478C581.257,596.767,582.772,598.404,583.887,600.389C585.036,602.375,585.611,604.778,585.611,607.599L585.611,637.118C585.611,637.432,585.628,637.78,585.663,638.163C585.698,638.546,585.785,638.895,585.924,639.208C586.064,639.521,586.273,639.783,586.551,639.992C586.83,640.201,587.23,640.305,587.753,640.305C588.38,640.305,588.955,640.079,589.477,639.626C590.034,639.138,590.522,638.651,590.94,638.163L592.246,639.26C591.724,639.992,591.097,640.793,590.365,641.664C589.634,642.534,588.746,643.353,587.701,644.119C586.656,644.885,585.437,645.53,584.043,646.052C582.65,646.575,581.065,646.836,579.289,646.836C577.095,646.836,575.144,646.192,573.438,644.903C571.731,643.579,570.616,641.559,570.094,638.842C568.979,640.34,567.812,641.594,566.593,642.604C565.409,643.614,564.19,644.433,562.936,645.06C561.682,645.687,560.411,646.139,559.122,646.418C557.868,646.697,556.597,646.836,555.308,646.836C553.636,646.836,552.017,646.575,550.449,646.052C548.882,645.53,547.471,644.711,546.217,643.597C544.998,642.447,544.006,640.967,543.239,639.156C542.508,637.345,542.142,635.133,542.142,632.521C542.142,629.351,542.769,626.756,544.023,624.736C545.277,622.716,546.914,621.026,548.934,619.668C550.989,618.275,553.305,617.09,555.883,616.115C558.495,615.14,561.16,614.112,563.876,613.033C565.897,612.232,567.36,611.047,568.265,609.48C569.206,607.878,569.676,606.241,569.676,604.569C569.676,601.991,568.91,599.936,567.377,598.404C565.879,596.836,563.824,596.053,561.212,596.053ZM662.935,608.331C662.935,606.032,662.778,604.133,662.465,602.636C662.151,601.138,661.803,599.902,661.42,598.926C661.072,597.916,660.741,597.098,660.427,596.471C660.114,595.809,659.957,595.199,659.957,594.642C659.957,594.12,660.166,593.684,660.584,593.336C661.002,592.988,661.49,592.692,662.047,592.448C662.639,592.204,663.231,592.03,663.823,591.925C664.45,591.821,664.955,591.769,665.338,591.769C666.348,591.769,667.08,591.908,667.533,592.187C667.986,592.465,668.351,593.005,668.63,593.806C668.943,594.816,669.152,596.157,669.257,597.829C669.396,599.466,669.466,601.225,669.466,603.106C669.466,605.788,669.309,608.731,668.996,611.936C668.682,615.14,668.177,618.362,667.48,621.601C666.819,624.84,665.948,627.975,664.868,631.005C663.823,634.036,662.552,636.735,661.054,639.104C659.556,641.437,657.832,643.318,655.882,644.746C653.931,646.139,651.72,646.836,649.247,646.836C647.296,646.836,645.537,646.453,643.97,645.687C642.437,644.885,641.061,643.806,639.842,642.447C638.623,641.089,637.543,639.504,636.603,637.693C635.697,635.847,634.896,633.879,634.2,631.789C633.399,633.914,632.476,635.899,631.431,637.745C630.386,639.556,629.219,641.141,627.93,642.5C626.676,643.858,625.283,644.92,623.75,645.687C622.218,646.453,620.563,646.836,618.787,646.836C616.593,646.836,614.642,646.366,612.936,645.425C611.264,644.45,609.783,643.144,608.495,641.507C607.206,639.835,606.091,637.902,605.151,635.708C604.21,633.513,603.392,631.197,602.695,628.759C602.034,626.321,601.476,623.813,601.023,621.235C600.571,618.658,600.188,616.167,599.874,613.764C599.561,611.361,599.299,609.114,599.09,607.024C598.881,604.935,598.672,603.123,598.463,601.591C598.22,600.198,597.854,599.118,597.366,598.352C596.913,597.585,596.13,597.202,595.015,597.202C594.423,597.202,593.918,597.307,593.5,597.516C593.082,597.725,592.629,598.021,592.142,598.404L591.044,597.098C591.846,596.436,592.734,595.792,593.709,595.165C594.719,594.503,595.799,593.928,596.948,593.44C598.098,592.953,599.334,592.552,600.658,592.239C601.981,591.925,603.375,591.769,604.837,591.769C606.927,591.769,608.617,592.134,609.905,592.866C611.194,593.562,612.204,594.451,612.936,595.53C613.702,596.575,614.242,597.707,614.555,598.926C614.869,600.145,615.095,601.243,615.234,602.218C615.861,607.477,616.471,612.11,617.063,616.115C617.69,620.121,618.352,623.482,619.048,626.199C619.745,628.881,620.494,630.918,621.295,632.312C622.131,633.67,623.106,634.349,624.221,634.349C624.952,634.349,625.666,634.036,626.363,633.409C627.059,632.782,627.721,631.911,628.348,630.796C628.975,629.682,629.567,628.341,630.125,626.773C630.682,625.171,631.169,623.412,631.587,621.497C631.239,619.581,630.943,617.683,630.699,615.802C630.455,613.921,630.229,612.127,630.02,610.42C629.846,608.679,629.672,607.059,629.498,605.562C629.323,604.064,629.132,602.74,628.923,601.591C628.4,598.317,628.696,595.861,629.811,594.224C630.96,592.587,633.242,591.769,636.655,591.769C638.153,591.769,639.407,591.908,640.417,592.187C641.462,592.43,642.315,592.918,642.977,593.649C643.674,594.346,644.231,595.321,644.649,596.575C645.067,597.794,645.398,599.362,645.642,601.277C646.303,606.502,646.948,611.169,647.575,615.279C648.202,619.389,648.863,622.855,649.56,625.676C650.257,628.498,651.006,630.657,651.807,632.155C652.643,633.618,653.618,634.349,654.732,634.349C655.917,634.349,657.014,633.618,658.024,632.155C659.034,630.692,659.905,628.759,660.636,626.355C661.368,623.952,661.925,621.183,662.308,618.048C662.726,614.914,662.935,611.674,662.935,608.331ZM702.642,618.937C702.642,618.066,702.363,617.404,701.806,616.951C701.249,616.498,700.535,616.272,699.664,616.272C698.445,616.272,697.278,616.551,696.164,617.108C695.084,617.665,694.126,618.484,693.29,619.563C692.454,620.643,691.792,621.984,691.305,623.586C690.817,625.154,690.573,626.982,690.573,629.072C690.573,631.092,690.713,632.764,690.991,634.088C691.305,635.411,691.705,636.474,692.193,637.275C692.715,638.041,693.307,638.581,693.969,638.895C694.631,639.208,695.328,639.365,696.059,639.365C696.965,639.365,697.818,639.138,698.619,638.686C699.42,638.198,700.117,637.588,700.709,636.857C701.301,636.125,701.771,635.307,702.12,634.401C702.468,633.496,702.642,632.59,702.642,631.685L702.642,618.937ZM694.335,596.053C693.151,596.053,692.054,596.192,691.043,596.471C690.033,596.749,689.163,597.098,688.431,597.516C687.7,597.934,687.125,598.404,686.707,598.926C686.289,599.414,686.08,599.884,686.08,600.337C686.08,600.859,686.341,601.243,686.864,601.486C687.421,601.695,688.031,601.957,688.692,602.27C689.354,602.549,689.946,602.967,690.469,603.524C691.026,604.046,691.305,604.865,691.305,605.979C691.305,606.711,691.148,607.39,690.834,608.017C690.556,608.609,690.155,609.149,689.633,609.637C689.145,610.09,688.553,610.455,687.856,610.734C687.195,610.978,686.498,611.1,685.767,611.1C683.816,611.1,682.231,610.438,681.012,609.114C679.828,607.791,679.236,606.032,679.236,603.837C679.236,601.713,679.793,599.902,680.908,598.404C682.022,596.871,683.468,595.617,685.244,594.642C687.055,593.667,689.093,592.953,691.357,592.5C693.621,592.012,695.885,591.769,698.149,591.769C700.866,591.769,703.461,592.065,705.934,592.657C708.407,593.249,710.583,594.189,712.464,595.478C714.38,596.767,715.895,598.404,717.01,600.389C718.159,602.375,718.734,604.778,718.734,607.599L718.734,637.118C718.734,637.432,718.751,637.78,718.786,638.163C718.821,638.546,718.908,638.895,719.047,639.208C719.187,639.521,719.396,639.783,719.674,639.992C719.953,640.201,720.354,640.305,720.876,640.305C721.503,640.305,722.078,640.079,722.6,639.626C723.157,639.138,723.645,638.651,724.063,638.163L725.369,639.26C724.847,639.992,724.22,640.793,723.488,641.664C722.757,642.534,721.869,643.353,720.824,644.119C719.779,644.885,718.56,645.53,717.167,646.052C715.773,646.575,714.188,646.836,712.412,646.836C710.218,646.836,708.267,646.192,706.561,644.903C704.854,643.579,703.739,641.559,703.217,638.842C702.102,640.34,700.935,641.594,699.716,642.604C698.532,643.614,697.313,644.433,696.059,645.06C694.805,645.687,693.534,646.139,692.245,646.418C690.991,646.697,689.72,646.836,688.431,646.836C686.759,646.836,685.14,646.575,683.572,646.052C682.005,645.53,680.594,644.711,679.34,643.597C678.121,642.447,677.129,640.967,676.362,639.156C675.631,637.345,675.265,635.133,675.265,632.521C675.265,629.351,675.892,626.756,677.146,624.736C678.4,622.716,680.037,621.026,682.057,619.668C684.112,618.275,686.428,617.09,689.006,616.115C691.618,615.14,694.283,614.112,697,613.033C699.02,612.232,700.483,611.047,701.388,609.48C702.329,607.878,702.799,606.241,702.799,604.569C702.799,601.991,702.033,599.936,700.5,598.404C699.002,596.836,696.947,596.053,694.335,596.053ZM748.566,641.402C748.566,641.855,748.479,642.395,748.305,643.022C748.166,643.649,747.8,644.241,747.208,644.798C746.651,645.356,745.815,645.826,744.7,646.209C743.62,646.627,742.158,646.836,740.312,646.836C738.465,646.836,737.02,646.61,735.975,646.157C734.93,645.739,734.146,645.234,733.624,644.642C733.136,644.049,732.823,643.44,732.684,642.813C732.579,642.186,732.527,641.681,732.527,641.298L732.527,573.9C732.527,572.89,732.283,572.02,731.795,571.288C731.343,570.522,730.559,570.139,729.444,570.139C728.852,570.139,728.33,570.243,727.877,570.452C727.459,570.626,727.006,570.905,726.519,571.288L725.474,570.034C726.275,569.372,727.163,568.728,728.138,568.101C729.113,567.439,730.176,566.865,731.325,566.377C732.509,565.889,733.763,565.489,735.087,565.175C736.41,564.862,737.804,564.705,739.267,564.705C741.531,564.705,743.29,565.019,744.543,565.646C745.797,566.238,746.72,566.986,747.312,567.892C747.905,568.763,748.253,569.703,748.357,570.713C748.497,571.689,748.566,572.559,748.566,573.326L748.566,641.402ZM778.451,641.298C778.451,641.751,778.364,642.308,778.19,642.97C778.051,643.597,777.685,644.206,777.093,644.798C776.535,645.356,775.717,645.826,774.637,646.209C773.557,646.627,772.095,646.836,770.249,646.836C768.403,646.836,766.957,646.61,765.912,646.157C764.867,645.739,764.083,645.234,763.561,644.642C763.039,644.049,762.708,643.44,762.568,642.813C762.464,642.186,762.412,641.681,762.412,641.298L762.412,600.964C762.412,599.954,762.168,599.083,761.68,598.352C761.227,597.585,760.444,597.202,759.329,597.202C758.737,597.202,758.232,597.307,757.814,597.516C757.396,597.725,756.943,598.021,756.456,598.404L755.358,597.098C756.16,596.436,757.048,595.792,758.023,595.165C759.033,594.503,760.113,593.928,761.262,593.44C762.412,592.953,763.648,592.552,764.972,592.239C766.295,591.925,767.688,591.769,769.151,591.769C771.415,591.769,773.174,592.082,774.428,592.709C775.682,593.301,776.605,594.05,777.197,594.956C777.789,595.826,778.138,596.767,778.242,597.777C778.382,598.787,778.451,599.675,778.451,600.441L778.451,641.298ZM760.792,579.856C760.792,578.881,761.001,577.958,761.419,577.087C761.872,576.182,762.481,575.398,763.248,574.736C764.049,574.075,764.954,573.552,765.964,573.169C767.009,572.786,768.141,572.594,769.36,572.594C770.545,572.594,771.642,572.786,772.652,573.169C773.697,573.552,774.602,574.075,775.369,574.736C776.135,575.398,776.727,576.182,777.145,577.087C777.598,577.958,777.824,578.881,777.824,579.856C777.824,580.867,777.598,581.807,777.145,582.678C776.727,583.549,776.135,584.315,775.369,584.977C774.602,585.604,773.697,586.109,772.652,586.492C771.642,586.875,770.545,587.066,769.36,587.066C768.141,587.066,767.009,586.875,765.964,586.492C764.954,586.109,764.049,585.604,763.248,584.977C762.481,584.315,761.872,583.549,761.419,582.678C761.001,581.807,760.792,580.867,760.792,579.856Z" fill="rgb(255,255,255)" stroke="none" stroke-width="1"/><g id="ewXOlTPzSia114" transform="matrix(0.75 0 0 0.75 161 26)"><g id="ewXOlTPzSia115_ts" transform="translate(-172.518637,413.851968) scale(1,1)"><circle id="ewXOlTPzSia115" r="8" transform="translate(0,0)" fill="rgb(241,199,56)" fill-opacity="0.77" stroke="none" stroke-width="1"/></g><g id="ewXOlTPzSia116_ts" transform="translate(984.814699,261.185301) scale(1,1)"><circle id="ewXOlTPzSia116" r="12" transform="translate(0,0)" fill="rgb(241,199,56)" fill-opacity="0.77" stroke="none" stroke-width="1"/></g><g id="ewXOlTPzSia117_ts" transform="translate(949.481367,861.85197) scale(1,1)"><circle id="ewXOlTPzSia117" r="6" transform="translate(0,0)" fill="rgb(241,199,56)" fill-opacity="0.77" stroke="none" stroke-width="1"/></g><g id="ewXOlTPzSia118_ts" transform="translate(-11.85197,976.518637) scale(1,1)"><circle id="ewXOlTPzSia118" r="10" transform="translate(0,0)" fill="rgb(241,199,56)" fill-opacity="0.77" stroke="none" stroke-width="1"/></g><g id="ewXOlTPzSia119_ts" transform="translate(1000.666669,1292.66667) scale(1,1)"><circle id="ewXOlTPzSia119" r="8" transform="translate(0,0)" fill="rgb(241,199,56)" fill-opacity="0.77" stroke="none" stroke-width="1"/></g><g id="ewXOlTPzSia120_ts" transform="translate(646.814699,101.185301) scale(1,1)"><circle id="ewXOlTPzSia120" r="8" transform="translate(0,0)" fill="rgb(241,199,56)" fill-opacity="0.77" stroke="none" stroke-width="1"/></g></g><path id="ewXOlTPzSia121" d="M457.187,951L435.205,951L435.205,993.306L457.058,1016.86L457.187,951ZM380.25,951L358.268,951L358.268,1016.86L380.25,992.62L380.25,951Z" clip-rule="evenodd" fill="rgb(255,255,255)" fill-rule="evenodd" stroke="none" stroke-width="1"/><g id="ewXOlTPzSia122" mask="url(#ewXOlTPzSia125)"><g id="ewXOlTPzSia123"><path id="ewXOlTPzSia124" d="M352.093,1008.63L380.22,981.871L380.22,992.848C380.22,992.848,375.418,1009.52,375.418,1010.68C375.418,1012.74,369.244,1023.72,369.244,1023.72L354.837,1023.72L352.093,1008.63ZM463.232,1008.63L435.104,981.871L435.104,992.848C435.104,992.848,439.906,1009.52,439.906,1010.68C439.906,1012.74,446.081,1023.72,446.081,1023.72L460.488,1023.72L463.232,1008.63Z" opacity="0.56" clip-rule="evenodd" fill="url(#ewXOlTPzSia124-fill)" fill-rule="evenodd" stroke="none" stroke-width="1"/></g><mask id="ewXOlTPzSia125" mask-type="alpha"><path id="ewXOlTPzSia126" d="M457.187,951L435.205,951L435.205,993.306L457.058,1016.86L457.187,951ZM380.25,951L358.268,951L358.268,1016.86L380.25,992.62L380.25,951Z" clip-rule="evenodd" fill="rgb(255,255,255)" fill-rule="evenodd" stroke="none" stroke-width="1"/></mask></g><path id="ewXOlTPzSia127" d="M435.205,1016.86L407.728,976.612L380.25,1016.86L358.268,1016.86L403.152,951L412.304,951L457.187,1016.86L435.205,1016.86Z" fill="rgb(255,255,255)" stroke="none" stroke-width="1"/><path id="ewXOlTPzSia128" d="M620.585,991.375C620.585,1003.61,614.177,1009.83,606.225,1009.83C600.799,1009.83,597.572,1006.81,596.122,1003.49L595.771,1003.49L595.771,1009.31L584.451,1009.31L584.451,961.416L595.888,961.416L595.888,979.541L596.122,979.541C597.502,976.244,600.612,972.923,606.295,972.923C613.803,972.923,620.585,978.699,620.585,991.375ZM508.597,980.267L499.967,1009.31L488.834,1009.31L474.895,961.416L487.688,961.416L494.915,992.803L495.313,992.803L503.569,961.416L514,961.416L522.255,992.873L522.653,992.873L529.903,961.416L542.673,961.416L528.757,1009.31L517.601,1009.31L508.971,980.267L508.597,980.267ZM577.806,998.369C576.496,1005.43,570.298,1009.99,560.873,1009.99C549.577,1009.99,542.701,1003,542.701,991.493C542.701,980.36,549.67,972.923,560.522,972.923C570.719,972.923,577.923,979.424,577.923,991.259L577.923,994.112L553.973,994.112L553.973,994.416C553.973,998.813,556.686,1001.74,561.083,1001.74C564.077,1001.74,566.416,1000.45,567.304,998.064L577.806,998.369ZM567.281,987.469L553.973,987.469C554.137,983.891,556.967,981.178,560.756,981.178C564.521,981.178,567.234,983.798,567.281,987.469ZM602.273,1000.92C598.087,1000.92,595.655,997.175,595.655,991.352C595.655,985.481,598.087,981.856,602.273,981.856C606.506,981.856,608.845,985.575,608.845,991.352C608.845,997.152,606.506,1000.92,602.273,1000.92ZM638.691,998.532L638.691,1009.31L627.255,1009.31L627.255,961.416L638.691,961.416L638.691,986.254L639.206,986.254L649.309,973.39L662.266,973.39L649.52,989.037L662.781,1009.31L649.566,1009.31L641.007,995.726L638.691,998.532ZM679.389,1009.78C684.768,1009.78,688.768,1007.02,690.358,1002.62L690.732,1002.62L690.732,1009.31L701.631,1009.31L701.631,973.39L690.218,973.39L690.218,993.808C690.218,997.994,687.551,1000.33,684.16,1000.33C680.652,1000.33,678.5,997.947,678.477,994.042L678.477,973.39L667.04,973.39L667.04,996.287C667.064,1004.4,671.999,1009.78,679.389,1009.78ZM721,961.416L721,1009.31L709.564,1009.31L709.564,961.416L721,961.416Z" clip-rule="evenodd" fill="rgb(255,255,255)" fill-rule="evenodd" stroke="none" stroke-width="1"/></g><clipPath id="ewXOlTPzSia129"><rect id="ewXOlTPzSia130" width="1080" height="1080" rx="0" ry="0" fill="rgb(255,255,255)" stroke="none" stroke-width="1"/></clipPath></g></svg>