<svg width="512" height="512" viewBox="0 0 512 512" fill="none" xmlns="http://www.w3.org/2000/svg">
<rect width="512" height="512" rx="71" fill="url(#paint0_linear)"/>
<path d="M165.25 236.75L198.75 197C180.75 177.5 151.5 165 124.75 165C69.75 165 29.75 202.5 29.75 254C29.75 306.25 68.75 344.5 122.5 344.5C149.5 344.5 179.25 330.75 198.75 309.5L165.25 273.75C153.75 286 138 293.75 125.5 293.75C104.5 293.75 89.25 276.75 89.25 253.25C89.25 230 104.5 213.25 125.5 213.25C139 213.25 154.75 222.5 165.25 236.75ZM422.119 166.75C397.369 166.75 378.619 180.25 368.869 203C360.619 180.25 342.119 166.75 317.369 166.75C296.119 166.75 279.119 176.75 268.619 194.25V166.75H210.619V342H268.619V247C268.619 230 278.369 218.75 292.869 218.75C306.869 218.75 314.619 229 314.619 245.25V342H373.369V247C373.369 230 383.119 218.75 397.619 218.75C411.619 218.75 419.369 229 419.369 245.25V342H478.119V231.25C478.119 192 455.869 166.75 422.119 166.75Z" fill="#292929"/>
<rect x="294" y="362" width="186" height="42" fill="#292929"/>
<defs>
<linearGradient id="paint0_linear" x1="90.5" y1="36" x2="531" y2="607.5" gradientUnits="userSpaceOnUse">
<stop stop-color="#F2994A"/>
<stop offset="1" stop-color="#FFC999"/>
</linearGradient>
</defs>
</svg>
